<?xml version="1.0" encoding="utf-8" ?>
<svg baseProfile="full" height="509" version="1.1" width="629" xmlns="http://www.w3.org/2000/svg" xmlns:ev="http://www.w3.org/2001/xml-events" xmlns:xlink="http://www.w3.org/1999/xlink"><defs /><polygon fill="black" points="253.0,506.5 252.5,506.0 252.5,505.0 252.5,504.0 253.0,503.5 253.5,503.0 253.5,502.0 254.0,501.5 254.5,501.0 254.5,500.0 254.5,499.0 255.0,498.5 255.5,498.0 255.5,497.0 256.0,496.5 256.5,496.0 256.5,495.0 256.5,494.0 257.0,493.5 257.5,493.0 257.5,492.0 257.5,491.0 258.0,490.5 258.5,490.0 258.5,489.0 259.0,488.5 259.5,488.0 259.5,487.0 259.5,486.0 260.0,485.5 260.5,485.0 260.5,484.0 260.5,483.0 261.0,482.5 261.5,482.0 261.5,481.0 261.5,480.0 262.0,479.5 262.5,479.0 262.5,478.0 263.0,477.5 263.5,477.0 263.5,476.0 263.5,475.0 264.0,474.5 264.5,474.0 264.5,473.0 264.5,472.0 265.0,471.5 265.5,471.0 265.5,470.0 265.5,469.0 266.0,468.5 266.5,468.0 266.5,467.0 267.0,466.5 267.5,466.0 267.5,465.0 267.5,464.0 268.0,463.5 268.5,463.0 268.5,462.0 269.0,461.5 269.5,461.0 269.5,460.0 269.5,459.0 270.0,458.5 270.5,458.0 270.5,457.0 270.5,456.0 271.0,455.5 271.5,455.0 271.5,454.0 271.5,453.0 272.0,452.5 272.5,452.0 272.5,451.0 273.0,450.5 273.5,450.0 273.5,449.0 273.5,448.0 274.0,447.5 274.5,447.0 274.5,446.0 274.5,445.0 275.0,444.5 275.5,444.0 275.5,443.0 276.0,442.5 276.5,442.0 276.5,441.0 276.5,440.0 277.0,439.5 277.5,439.0 277.5,438.0 277.5,437.0 278.0,436.5 278.5,436.0 278.5,435.0 279.0,434.5 279.5,434.0 279.5,433.0 279.5,432.0 280.0,431.5 280.5,431.0 280.5,430.0 280.5,429.0 281.0,428.5 281.5,428.0 281.5,427.0 282.0,426.5 282.5,426.0 282.5,425.0 282.5,424.0 283.0,423.5 283.5,423.0 283.5,422.0 283.5,421.0 284.0,420.5 284.5,420.0 284.5,419.0 285.0,418.5 285.5,418.0 285.5,417.0 285.5,416.0 286.0,415.5 286.5,415.0 286.5,414.0 286.5,413.0 287.0,412.5 287.5,412.0 287.5,411.0 288.0,410.5 288.5,410.0 288.5,409.0 288.5,408.0 289.0,407.5 289.5,407.0 289.5,406.0 289.5,405.0 290.0,404.5 290.5,404.0 290.5,403.0 290.5,402.0 291.0,401.5 291.5,401.0 291.5,400.0 291.5,399.0 292.0,398.5 292.5,398.0 292.5,397.0 293.0,396.5 293.5,396.0 293.5,395.0 293.5,394.0 294.0,393.5 294.5,393.0 294.5,392.0 294.5,391.0 295.0,390.5 295.5,390.0 295.5,389.0 296.0,388.5 296.5,388.0 296.5,387.0 296.5,386.0 297.0,385.5 297.5,385.0 297.5,384.0 297.5,383.0 298.0,382.5 298.5,382.0 298.5,381.0 299.0,380.5 299.5,380.0 299.5,379.0 299.5,378.0 300.0,377.5 300.5,377.0 300.5,376.0 300.5,375.0 301.0,374.5 301.5,374.0 301.5,373.0 302.0,372.5 302.5,372.0 302.5,371.0 302.5,370.0 303.0,369.5 303.5,369.0 303.5,368.0 303.5,367.0 304.0,366.5 304.5,366.0 304.5,365.0 305.0,364.5 305.5,364.0 305.5,363.0 305.5,362.0 306.0,361.5 306.5,361.0 306.5,360.0 307.0,359.5 307.5,359.0 307.5,358.0 308.0,357.5 308.5,357.0 308.5,356.0 309.0,355.5 309.5,355.0 309.5,354.0 310.0,353.5 310.5,353.0 311.0,352.5 311.5,352.0 311.5,351.0 312.0,350.5 312.5,350.0 312.5,349.0 313.0,348.5 313.5,348.0 314.0,347.5 314.5,347.0 315.0,346.5 315.5,346.0 316.0,345.5 316.5,345.0 317.0,344.5 317.5,344.0 318.0,343.5 318.5,343.0 319.0,342.5 319.5,342.0 320.0,341.5 321.0,341.5 321.5,341.0 322.0,340.5 322.5,340.0 323.0,339.5 324.0,339.5 324.5,339.0 325.0,338.5 325.5,338.0 326.0,337.5 327.0,337.5 327.5,337.0 328.0,336.5 329.0,336.5 329.5,336.0 330.0,335.5 331.0,335.5 332.0,335.5 332.5,335.0 333.0,334.5 334.0,334.5 335.0,334.5 335.5,334.0 336.0,333.5 337.0,333.5 338.0,333.5 339.0,333.5 340.0,333.5 340.5,333.0 341.0,332.5 342.0,332.5 343.0,332.5 344.0,332.5 345.0,332.5 346.0,332.5 347.0,332.5 348.0,332.5 349.0,332.5 350.0,332.5 351.0,332.5 352.0,332.5 353.0,332.5 354.0,332.5 355.0,332.5 356.0,332.5 357.0,332.5 358.0,332.5 359.0,332.5 360.0,332.5 361.0,332.5 362.0,332.5 363.0,332.5 364.0,332.5 365.0,332.5 366.0,332.5 367.0,332.5 368.0,332.5 369.0,332.5 370.0,332.5 371.0,332.5 372.0,332.5 373.0,332.5 374.0,332.5 375.0,332.5 376.0,332.5 377.0,332.5 378.0,332.5 379.0,332.5 380.0,332.5 381.0,332.5 382.0,332.5 383.0,332.5 384.0,332.5 385.0,332.5 386.0,332.5 387.0,332.5 388.0,332.5 389.0,332.5 390.0,332.5 391.0,332.5 392.0,332.5 393.0,332.5 394.0,332.5 395.0,332.5 396.0,332.5 397.0,332.5 398.0,332.5 399.0,332.5 400.0,332.5 401.0,332.5 402.0,332.5 403.0,332.5 404.0,332.5 405.0,332.5 406.0,332.5 407.0,332.5 408.0,332.5 409.0,332.5 410.0,332.5 410.5,332.0 411.0,331.5 412.0,331.5 413.0,331.5 414.0,331.5 414.5,331.0 415.0,330.5 416.0,330.5 416.5,330.0 417.0,329.5 418.0,329.5 418.5,329.0 419.0,328.5 419.5,328.0 420.0,327.5 421.0,327.5 421.5,327.0 421.5,326.0 422.0,325.5 422.5,325.0 423.0,324.5 423.5,324.0 423.5,323.0 424.0,322.5 424.5,322.0 424.5,321.0 425.0,320.5 425.5,320.0 425.5,319.0 425.5,318.0 425.5,317.0 425.5,316.0 426.0,315.5 426.5,315.0 426.5,314.0 426.5,313.0 426.5,312.0 426.5,311.0 426.5,310.0 426.5,309.0 426.5,308.0 426.5,307.0 426.5,306.0 426.5,305.0 426.5,304.0 426.5,303.0 426.5,302.0 426.0,301.5 425.5,301.0 425.5,300.0 425.5,299.0 425.5,298.0 425.5,297.0 425.5,296.0 425.5,295.0 425.5,294.0 425.5,293.0 425.5,292.0 426.0,291.5 426.5,291.0 426.5,290.0 426.5,289.0 426.5,288.0 426.5,287.0 426.5,286.0 426.5,285.0 426.5,284.0 426.5,283.0 426.5,282.0 426.5,281.0 426.5,280.0 426.5,279.0 426.5,278.0 426.5,277.0 426.5,276.0 426.5,275.0 426.5,274.0 426.5,273.0 426.5,272.0 426.5,271.0 426.5,270.0 426.5,269.0 426.5,268.0 426.5,267.0 426.5,266.0 426.5,265.0 426.5,264.0 426.5,263.0 426.5,262.0 426.5,261.0 426.5,260.0 426.5,259.0 426.5,258.0 426.5,257.0 426.5,256.0 426.5,255.0 426.5,254.0 426.5,253.0 426.5,252.0 426.5,251.0 426.5,250.0 426.5,249.0 426.5,248.0 426.5,247.0 426.5,246.0 426.5,245.0 426.5,244.0 426.5,243.0 426.5,242.0 426.5,241.0 426.5,240.0 426.5,239.0 426.5,238.0 426.5,237.0 426.5,236.0 426.5,235.0 426.5,234.0 426.5,233.0 426.5,232.0 426.5,231.0 426.5,230.0 426.5,229.0 426.5,228.0 426.5,227.0 426.5,226.0 426.5,225.0 426.5,224.0 426.5,223.0 426.5,222.0 426.5,221.0 426.5,220.0 426.5,219.0 426.5,218.0 426.5,217.0 426.5,216.0 426.5,215.0 426.5,214.0 426.5,213.0 426.5,212.0 426.5,211.0 426.5,210.0 426.5,209.0 426.5,208.0 426.5,207.0 426.5,206.0 426.5,205.0 426.5,204.0 426.5,203.0 426.5,202.0 426.5,201.0 426.5,200.0 426.5,199.0 426.5,198.0 426.5,197.0 426.5,196.0 426.5,195.0 426.5,194.0 426.5,193.0 426.5,192.0 426.5,191.0 426.5,190.0 426.5,189.0 426.5,188.0 426.5,187.0 426.5,186.0 426.5,185.0 426.5,184.0 426.5,183.0 426.5,182.0 426.5,181.0 426.0,180.5 425.5,180.0 425.5,179.0 425.5,178.0 425.5,177.0 425.0,176.5 424.0,176.5 423.0,176.5 422.0,176.5 421.0,176.5 420.0,176.5 419.0,176.5 418.0,176.5 417.0,176.5 416.0,176.5 415.0,176.5 414.0,176.5 413.0,176.5 412.0,176.5 411.0,176.5 410.0,176.5 409.0,176.5 408.0,176.5 407.0,176.5 406.0,176.5 405.0,176.5 404.0,176.5 403.0,176.5 402.0,176.5 401.0,176.5 400.0,176.5 399.0,176.5 398.0,176.5 397.0,176.5 396.0,176.5 395.0,176.5 394.0,176.5 393.0,176.5 392.0,176.5 391.0,176.5 390.0,176.5 389.0,176.5 388.0,176.5 387.0,176.5 386.0,176.5 385.0,176.5 384.0,176.5 383.0,176.5 382.0,176.5 381.0,176.5 380.0,176.5 379.0,176.5 378.0,176.5 377.0,176.5 376.0,176.5 375.0,176.5 374.0,176.5 373.0,176.5 372.0,176.5 371.0,176.5 370.0,176.5 369.0,176.5 368.5,176.0 368.0,175.5 367.0,175.5 366.0,175.5 365.0,175.5 364.5,175.0 364.0,174.5 363.0,174.5 362.0,174.5 361.5,174.0 361.0,173.5 360.0,173.5 359.5,173.0 359.0,172.5 358.0,172.5 357.5,172.0 357.0,171.5 356.5,171.0 356.0,170.5 355.0,170.5 354.5,170.0 354.0,169.5 353.5,169.0 353.0,168.5 352.5,168.0 352.0,167.5 351.5,167.0 351.0,166.5 350.5,166.0 350.0,165.5 349.5,165.0 349.0,164.5 348.5,164.0 348.5,163.0 348.0,162.5 347.5,162.0 347.0,161.5 346.5,161.0 346.5,160.0 346.0,159.5 345.5,159.0 345.5,158.0 345.5,157.0 345.0,156.5 344.5,156.0 344.5,155.0 344.5,154.0 344.0,153.5 343.5,153.0 343.5,152.0 343.5,151.0 343.5,150.0 343.5,149.0 343.5,148.0 343.5,147.0 343.5,146.0 343.5,145.0 343.5,144.0 343.5,143.0 343.5,142.0 343.5,141.0 343.5,140.0 343.5,139.0 343.5,138.0 343.5,137.0 343.5,136.0 343.5,135.0 343.5,134.0 343.5,133.0 343.5,132.0 343.5,131.0 343.5,130.0 343.5,129.0 343.5,128.0 343.5,127.0 343.5,126.0 343.5,125.0 343.5,124.0 343.5,123.0 343.5,122.0 343.5,121.0 343.5,120.0 343.5,119.0 343.5,118.0 343.5,117.0 343.5,116.0 343.5,115.0 343.5,114.0 343.5,113.0 343.5,112.0 343.5,111.0 343.5,110.0 343.5,109.0 343.5,108.0 343.5,107.0 343.5,106.0 343.5,105.0 343.5,104.0 343.5,103.0 343.5,102.0 343.5,101.0 343.0,100.5 342.0,100.5 341.0,100.5 340.0,100.5 339.0,100.5 338.0,100.5 337.0,100.5 336.0,100.5 335.0,100.5 334.0,100.5 333.0,100.5 332.0,100.5 331.0,100.5 330.0,100.5 329.0,100.5 328.0,100.5 327.0,100.5 326.0,100.5 325.0,100.5 324.0,100.5 323.0,100.5 322.0,100.5 321.0,100.5 320.0,100.5 319.0,100.5 318.0,100.5 317.0,100.5 316.0,100.5 315.0,100.5 314.0,100.5 313.0,100.5 312.0,100.5 311.0,100.5 310.0,100.5 309.0,100.5 308.0,100.5 307.0,100.5 306.0,100.5 305.0,100.5 304.0,100.5 303.0,100.5 302.0,100.5 301.0,100.5 300.0,100.5 299.0,100.5 298.0,100.5 297.0,100.5 296.0,100.5 295.0,100.5 294.0,100.5 293.0,100.5 292.0,100.5 291.0,100.5 290.0,100.5 289.0,100.5 288.0,100.5 287.0,100.5 286.0,100.5 285.0,100.5 284.0,100.5 283.0,100.5 282.0,100.5 281.0,100.5 280.0,100.5 279.0,100.5 278.0,100.5 277.0,100.5 276.0,100.5 275.0,100.5 274.0,100.5 273.0,100.5 272.0,100.5 271.0,100.5 270.0,100.5 269.0,100.5 268.0,100.5 267.0,100.5 266.0,100.5 265.0,100.5 264.0,100.5 263.0,100.5 262.0,100.5 261.0,100.5 260.0,100.5 259.0,100.5 258.0,100.5 257.0,100.5 256.0,100.5 255.0,100.5 254.0,100.5 253.0,100.5 252.0,100.5 251.0,100.5 250.0,100.5 249.0,100.5 248.0,100.5 247.0,100.5 246.0,100.5 245.0,100.5 244.0,100.5 243.0,100.5 242.0,100.5 241.0,100.5 240.0,100.5 239.0,100.5 238.0,100.5 237.0,100.5 236.0,100.5 235.0,100.5 234.0,100.5 233.0,100.5 232.0,100.5 231.0,100.5 230.0,100.5 229.0,100.5 228.0,100.5 227.0,100.5 226.0,100.5 225.0,100.5 224.0,100.5 223.0,100.5 222.0,100.5 221.0,100.5 220.0,100.5 219.0,100.5 218.0,100.5 217.0,100.5 216.0,100.5 215.5,101.0 215.0,101.5 214.0,101.5 213.0,101.5 212.5,102.0 212.0,102.5 211.0,102.5 210.5,103.0 210.0,103.5 209.5,104.0 209.0,104.5 208.5,105.0 208.0,105.5 207.5,106.0 207.0,106.5 206.5,107.0 206.0,107.5 205.5,108.0 205.5,109.0 205.0,109.5 204.5,110.0 204.5,111.0 204.5,112.0 204.0,112.5 203.5,113.0 203.5,114.0 203.5,115.0 203.5,116.0 203.5,117.0 203.5,118.0 203.5,119.0 203.5,120.0 203.5,121.0 203.5,122.0 203.5,123.0 203.5,124.0 203.5,125.0 203.5,126.0 203.5,127.0 203.5,128.0 203.5,129.0 203.5,130.0 203.5,131.0 203.5,132.0 203.5,133.0 203.5,134.0 203.5,135.0 203.5,136.0 203.5,137.0 203.5,138.0 203.5,139.0 203.5,140.0 203.5,141.0 203.5,142.0 203.5,143.0 203.5,144.0 203.5,145.0 203.5,146.0 203.5,147.0 203.5,148.0 203.5,149.0 203.5,150.0 203.5,151.0 203.5,152.0 203.5,153.0 203.5,154.0 203.5,155.0 203.5,156.0 203.5,157.0 203.5,158.0 203.5,159.0 203.5,160.0 203.5,161.0 203.5,162.0 203.5,163.0 203.5,164.0 203.5,165.0 203.5,166.0 203.5,167.0 203.5,168.0 203.5,169.0 203.5,170.0 203.5,171.0 203.5,172.0 203.5,173.0 203.5,174.0 203.5,175.0 203.5,176.0 203.5,177.0 203.5,178.0 203.5,179.0 203.5,180.0 203.5,181.0 203.5,182.0 203.5,183.0 203.5,184.0 203.5,185.0 203.5,186.0 203.5,187.0 203.5,188.0 203.5,189.0 203.5,190.0 203.5,191.0 203.5,192.0 203.5,193.0 203.5,194.0 203.5,195.0 203.5,196.0 203.5,197.0 203.5,198.0 203.5,199.0 203.5,200.0 203.5,201.0 203.5,202.0 203.5,203.0 203.5,204.0 203.5,205.0 203.5,206.0 203.5,207.0 203.5,208.0 203.5,209.0 203.5,210.0 203.5,211.0 203.5,212.0 203.5,213.0 203.5,214.0 203.5,215.0 203.5,216.0 203.5,217.0 203.5,218.0 203.5,219.0 203.5,220.0 203.5,221.0 203.5,222.0 203.5,223.0 203.5,224.0 203.5,225.0 203.5,226.0 203.5,227.0 203.5,228.0 203.5,229.0 203.5,230.0 203.5,231.0 203.5,232.0 203.5,233.0 203.5,234.0 203.5,235.0 203.5,236.0 203.5,237.0 203.5,238.0 203.5,239.0 203.5,240.0 203.5,241.0 203.5,242.0 203.5,243.0 203.5,244.0 203.5,245.0 203.5,246.0 203.5,247.0 203.5,248.0 203.5,249.0 203.5,250.0 203.5,251.0 203.5,252.0 203.5,253.0 203.5,254.0 203.5,255.0 203.5,256.0 203.5,257.0 203.5,258.0 203.5,259.0 203.5,260.0 203.5,261.0 203.5,262.0 203.5,263.0 203.5,264.0 203.5,265.0 203.5,266.0 203.5,267.0 203.5,268.0 203.5,269.0 203.5,270.0 203.5,271.0 203.5,272.0 203.5,273.0 203.5,274.0 203.5,275.0 203.5,276.0 203.5,277.0 203.5,278.0 203.5,279.0 203.5,280.0 203.5,281.0 203.5,282.0 203.5,283.0 203.5,284.0 203.5,285.0 203.5,286.0 203.5,287.0 203.5,288.0 203.5,289.0 203.5,290.0 203.5,291.0 203.5,292.0 203.5,293.0 203.5,294.0 203.5,295.0 203.5,296.0 203.5,297.0 203.5,298.0 203.5,299.0 203.5,300.0 203.5,301.0 203.5,302.0 203.5,303.0 203.5,304.0 203.5,305.0 203.5,306.0 203.5,307.0 203.5,308.0 203.5,309.0 203.5,310.0 203.5,311.0 203.5,312.0 203.5,313.0 203.5,314.0 203.5,315.0 203.5,316.0 203.5,317.0 203.5,318.0 203.5,319.0 203.5,320.0 203.5,321.0 203.5,322.0 203.5,323.0 203.5,324.0 203.5,325.0 203.5,326.0 203.5,327.0 203.5,328.0 203.5,329.0 203.5,330.0 203.5,331.0 203.5,332.0 203.5,333.0 203.5,334.0 203.5,335.0 203.5,336.0 203.5,337.0 203.5,338.0 203.5,339.0 203.5,340.0 203.5,341.0 203.5,342.0 203.5,343.0 203.5,344.0 203.5,345.0 203.5,346.0 203.5,347.0 203.5,348.0 203.5,349.0 203.5,350.0 203.5,351.0 203.5,352.0 203.5,353.0 203.5,354.0 203.5,355.0 203.5,356.0 203.5,357.0 203.5,358.0 203.5,359.0 203.5,360.0 203.5,361.0 203.5,362.0 203.5,363.0 203.5,364.0 203.5,365.0 203.5,366.0 203.5,367.0 203.5,368.0 203.5,369.0 203.5,370.0 203.5,371.0 203.5,372.0 203.5,373.0 203.5,374.0 203.5,375.0 203.5,376.0 203.5,377.0 203.5,378.0 203.5,379.0 203.5,380.0 203.5,381.0 203.5,382.0 203.5,383.0 203.5,384.0 203.5,385.0 203.5,386.0 203.5,387.0 203.5,388.0 203.5,389.0 203.5,390.0 203.5,391.0 203.5,392.0 203.5,393.0 203.5,394.0 203.5,395.0 203.5,396.0 203.5,397.0 203.5,398.0 203.5,399.0 203.5,400.0 203.5,401.0 203.5,402.0 204.0,402.5 204.5,403.0 204.5,404.0 205.0,404.5 205.5,405.0 205.5,406.0 206.0,406.5 206.5,407.0 206.5,408.0 207.0,408.5 207.5,409.0 208.0,409.5 208.5,410.0 209.0,410.5 210.0,410.5 210.5,411.0 211.0,411.5 211.5,412.0 212.0,412.5 213.0,412.5 214.0,412.5 214.5,413.0 215.0,413.5 216.0,413.5 217.0,413.5 218.0,413.5 218.5,414.0 219.0,414.5 220.0,414.5 221.0,414.5 222.0,414.5 223.0,414.5 224.0,414.5 225.0,414.5 226.0,414.5 227.0,414.5 228.0,414.5 229.0,414.5 230.0,414.5 231.0,414.5 232.0,414.5 233.0,414.5 234.0,414.5 235.0,414.5 236.0,414.5 237.0,414.5 238.0,414.5 239.0,414.5 240.0,414.5 241.0,414.5 242.0,414.5 243.0,414.5 244.0,414.5 245.0,414.5 246.0,414.5 247.0,414.5 248.0,414.5 249.0,414.5 250.0,414.5 251.0,414.5 252.0,414.5 253.0,414.5 254.0,414.5 255.0,414.5 256.0,414.5 257.0,414.5 258.0,414.5 259.0,414.5 260.0,414.5 261.0,414.5 262.0,414.5 263.0,414.5 264.0,414.5 265.0,414.5 266.0,414.5 267.0,414.5 268.0,414.5 269.0,414.5 270.0,414.5 270.5,415.0 270.5,416.0 270.5,417.0 270.0,417.5 269.5,418.0 269.5,419.0 269.5,420.0 269.0,420.5 268.5,421.0 268.5,422.0 268.5,423.0 268.0,423.5 267.5,424.0 267.5,425.0 267.0,425.5 266.5,426.0 266.5,427.0 266.5,428.0 266.0,428.5 265.5,429.0 265.5,430.0 265.5,431.0 265.0,431.5 264.5,432.0 264.5,433.0 264.5,434.0 264.0,434.5 263.5,435.0 263.5,436.0 263.0,436.5 262.0,436.5 261.0,436.5 260.0,436.5 259.0,436.5 258.0,436.5 257.0,436.5 256.0,436.5 255.0,436.5 254.0,436.5 253.0,436.5 252.0,436.5 251.0,436.5 250.0,436.5 249.0,436.5 248.0,436.5 247.0,436.5 246.0,436.5 245.0,436.5 244.0,436.5 243.0,436.5 242.0,436.5 241.0,436.5 240.0,436.5 239.0,436.5 238.0,436.5 237.0,436.5 236.0,436.5 235.0,436.5 234.0,436.5 233.0,436.5 232.0,436.5 231.0,436.5 230.0,436.5 229.0,436.5 228.0,436.5 227.0,436.5 226.0,436.5 225.0,436.5 224.0,436.5 223.0,436.5 222.0,436.5 221.0,436.5 220.0,436.5 219.0,436.5 218.0,436.5 217.0,436.5 216.0,436.5 215.0,436.5 214.5,436.0 214.0,435.5 213.0,435.5 212.0,435.5 211.0,435.5 210.0,435.5 209.5,435.0 209.0,434.5 208.0,434.5 207.0,434.5 206.0,434.5 205.5,434.0 205.0,433.5 204.0,433.5 203.5,433.0 203.0,432.5 202.0,432.5 201.5,432.0 201.0,431.5 200.0,431.5 199.5,431.0 199.0,430.5 198.5,430.0 198.0,429.5 197.0,429.5 196.5,429.0 196.0,428.5 195.5,428.0 195.0,427.5 194.0,427.5 193.5,427.0 193.0,426.5 192.5,426.0 192.0,425.5 191.5,425.0 191.0,424.5 190.5,424.0 190.0,423.5 189.5,423.0 189.5,422.0 189.0,421.5 188.5,421.0 188.0,420.5 187.5,420.0 187.5,419.0 187.0,418.5 186.5,418.0 186.5,417.0 186.0,416.5 185.5,416.0 185.5,415.0 185.0,414.5 184.5,414.0 184.5,413.0 184.0,412.5 183.5,412.0 183.5,411.0 183.5,410.0 183.0,409.5 182.5,409.0 182.5,408.0 182.5,407.0 182.5,406.0 182.0,405.5 181.5,405.0 181.5,404.0 181.5,403.0 181.5,402.0 181.5,401.0 181.5,400.0 181.5,399.0 181.5,398.0 181.5,397.0 181.5,396.0 181.5,395.0 181.5,394.0 181.5,393.0 181.5,392.0 181.5,391.0 181.5,390.0 181.5,389.0 181.5,388.0 181.5,387.0 181.5,386.0 181.5,385.0 181.5,384.0 181.5,383.0 181.5,382.0 181.5,381.0 181.5,380.0 181.5,379.0 181.5,378.0 181.5,377.0 181.5,376.0 181.5,375.0 181.5,374.0 181.5,373.0 181.5,372.0 181.5,371.0 181.5,370.0 181.5,369.0 181.5,368.0 181.5,367.0 181.5,366.0 181.5,365.0 181.5,364.0 181.5,363.0 181.5,362.0 181.5,361.0 181.5,360.0 181.5,359.0 181.5,358.0 181.5,357.0 181.5,356.0 181.5,355.0 181.5,354.0 181.5,353.0 181.5,352.0 181.5,351.0 181.5,350.0 181.5,349.0 181.5,348.0 181.5,347.0 181.5,346.0 181.5,345.0 181.5,344.0 181.5,343.0 181.5,342.0 181.5,341.0 181.5,340.0 181.5,339.0 181.5,338.0 181.5,337.0 181.5,336.0 181.5,335.0 181.5,334.0 181.5,333.0 181.5,332.0 181.5,331.0 181.5,330.0 181.5,329.0 181.5,328.0 181.5,327.0 181.5,326.0 181.5,325.0 181.5,324.0 181.5,323.0 181.5,322.0 181.5,321.0 181.5,320.0 181.5,319.0 181.5,318.0 181.5,317.0 181.5,316.0 181.5,315.0 181.5,314.0 181.5,313.0 181.5,312.0 181.5,311.0 181.5,310.0 181.5,309.0 181.5,308.0 181.5,307.0 181.5,306.0 181.5,305.0 181.5,304.0 181.5,303.0 181.5,302.0 181.5,301.0 181.5,300.0 181.5,299.0 181.5,298.0 181.5,297.0 181.5,296.0 181.5,295.0 181.5,294.0 181.5,293.0 181.5,292.0 181.5,291.0 181.5,290.0 181.5,289.0 181.5,288.0 181.5,287.0 181.5,286.0 181.5,285.0 181.5,284.0 181.5,283.0 181.5,282.0 181.5,281.0 181.5,280.0 181.5,279.0 181.5,278.0 181.5,277.0 181.5,276.0 181.5,275.0 181.5,274.0 181.5,273.0 181.5,272.0 181.5,271.0 181.5,270.0 181.5,269.0 181.5,268.0 181.5,267.0 181.5,266.0 181.5,265.0 181.5,264.0 181.5,263.0 181.5,262.0 181.5,261.0 181.5,260.0 181.5,259.0 181.5,258.0 181.5,257.0 181.5,256.0 181.5,255.0 181.5,254.0 181.5,253.0 181.5,252.0 181.5,251.0 181.5,250.0 181.5,249.0 181.5,248.0 181.5,247.0 181.5,246.0 181.5,245.0 181.5,244.0 181.5,243.0 181.5,242.0 181.5,241.0 181.5,240.0 181.5,239.0 181.5,238.0 181.5,237.0 181.5,236.0 181.5,235.0 181.5,234.0 181.5,233.0 181.5,232.0 181.5,231.0 181.5,230.0 181.5,229.0 181.5,228.0 181.5,227.0 181.5,226.0 181.5,225.0 181.5,224.0 181.5,223.0 181.5,222.0 181.5,221.0 181.5,220.0 181.5,219.0 181.5,218.0 181.5,217.0 181.5,216.0 181.5,215.0 181.5,214.0 181.5,213.0 181.5,212.0 181.5,211.0 181.5,210.0 181.5,209.0 181.5,208.0 181.5,207.0 181.5,206.0 181.5,205.0 181.5,204.0 181.5,203.0 181.5,202.0 181.5,201.0 181.5,200.0 181.5,199.0 181.5,198.0 181.5,197.0 181.5,196.0 181.5,195.0 181.5,194.0 181.5,193.0 181.5,192.0 181.5,191.0 181.5,190.0 181.5,189.0 181.5,188.0 181.5,187.0 181.5,186.0 181.5,185.0 181.5,184.0 181.5,183.0 181.5,182.0 181.5,181.0 181.5,180.0 181.5,179.0 181.5,178.0 181.5,177.0 181.5,176.0 181.5,175.0 181.5,174.0 181.5,173.0 181.5,172.0 181.5,171.0 181.5,170.0 181.5,169.0 181.5,168.0 181.5,167.0 181.5,166.0 181.5,165.0 181.5,164.0 181.5,163.0 181.5,162.0 181.5,161.0 181.5,160.0 181.5,159.0 181.5,158.0 181.5,157.0 181.5,156.0 181.5,155.0 181.5,154.0 181.5,153.0 181.5,152.0 181.5,151.0 181.5,150.0 181.5,149.0 181.5,148.0 181.5,147.0 181.5,146.0 181.5,145.0 181.5,144.0 181.5,143.0 181.5,142.0 181.5,141.0 181.5,140.0 181.5,139.0 181.5,138.0 181.5,137.0 181.5,136.0 181.5,135.0 181.5,134.0 181.5,133.0 181.5,132.0 181.5,131.0 181.5,130.0 181.5,129.0 181.5,128.0 181.5,127.0 181.5,126.0 181.5,125.0 181.5,124.0 181.5,123.0 181.5,122.0 181.5,121.0 181.5,120.0 181.5,119.0 181.5,118.0 181.5,117.0 181.5,116.0 181.5,115.0 181.5,114.0 181.5,113.0 181.5,112.0 181.5,111.0 181.5,110.0 181.5,109.0 182.0,108.5 182.5,108.0 182.5,107.0 182.5,106.0 182.5,105.0 183.0,104.5 183.5,104.0 183.5,103.0 183.5,102.0 184.0,101.5 184.5,101.0 184.5,100.0 185.0,99.5 185.5,99.0 185.5,98.0 186.0,97.5 186.5,97.0 187.0,96.5 187.5,96.0 187.5,95.0 188.0,94.5 188.5,94.0 188.5,93.0 189.0,92.5 189.5,92.0 190.0,91.5 190.5,91.0 191.0,90.5 191.5,90.0 192.0,89.5 192.5,89.0 193.0,88.5 193.5,88.0 194.0,87.5 194.5,87.0 195.0,86.5 195.5,86.0 196.0,85.5 197.0,85.5 197.5,85.0 198.0,84.5 198.5,84.0 199.0,83.5 200.0,83.5 200.5,83.0 201.0,82.5 202.0,82.5 202.5,82.0 203.0,81.5 204.0,81.5 204.5,81.0 205.0,80.5 206.0,80.5 207.0,80.5 207.5,80.0 208.0,79.5 209.0,79.5 210.0,79.5 211.0,79.5 211.5,79.0 212.0,78.5 213.0,78.5 214.0,78.5 215.0,78.5 216.0,78.5 217.0,78.5 218.0,78.5 219.0,78.5 220.0,78.5 221.0,78.5 222.0,78.5 223.0,78.5 224.0,78.5 225.0,78.5 226.0,78.5 227.0,78.5 228.0,78.5 229.0,78.5 230.0,78.5 231.0,78.5 232.0,78.5 233.0,78.5 234.0,78.5 235.0,78.5 236.0,78.5 237.0,78.5 238.0,78.5 239.0,78.5 240.0,78.5 241.0,78.5 242.0,78.5 243.0,78.5 244.0,78.5 245.0,78.5 246.0,78.5 247.0,78.5 248.0,78.5 249.0,78.5 250.0,78.5 251.0,78.5 252.0,78.5 253.0,78.5 254.0,78.5 255.0,78.5 256.0,78.5 257.0,78.5 258.0,78.5 259.0,78.5 260.0,78.5 261.0,78.5 262.0,78.5 263.0,78.5 264.0,78.5 265.0,78.5 266.0,78.5 267.0,78.5 268.0,78.5 269.0,78.5 270.0,78.5 271.0,78.5 272.0,78.5 273.0,78.5 274.0,78.5 275.0,78.5 276.0,78.5 277.0,78.5 278.0,78.5 279.0,78.5 280.0,78.5 281.0,78.5 282.0,78.5 283.0,78.5 284.0,78.5 285.0,78.5 286.0,78.5 287.0,78.5 288.0,78.5 289.0,78.5 290.0,78.5 291.0,78.5 292.0,78.5 293.0,78.5 294.0,78.5 295.0,78.5 296.0,78.5 297.0,78.5 298.0,78.5 299.0,78.5 300.0,78.5 301.0,78.5 302.0,78.5 302.5,78.0 303.0,77.5 303.5,77.0 303.5,76.0 303.5,75.0 304.0,74.5 304.5,74.0 304.5,73.0 305.0,72.5 305.5,72.0 305.5,71.0 305.5,70.0 306.0,69.5 306.5,69.0 306.5,68.0 307.0,67.5 307.5,67.0 307.5,66.0 308.0,65.5 308.5,65.0 308.5,64.0 308.5,63.0 309.0,62.5 309.5,62.0 309.5,61.0 310.0,60.5 310.5,60.0 310.5,59.0 310.5,58.0 311.0,57.5 311.5,57.0 311.5,56.0 312.0,55.5 312.5,55.0 312.5,54.0 312.5,53.0 313.0,52.5 313.5,52.0 313.5,51.0 314.0,50.5 314.5,50.0 314.5,49.0 315.0,48.5 315.5,48.0 315.5,47.0 315.5,46.0 316.0,45.5 316.5,45.0 316.5,44.0 317.0,43.5 317.5,43.0 317.5,42.0 317.5,41.0 318.0,40.5 318.5,40.0 318.5,39.0 319.0,38.5 319.5,38.0 319.5,37.0 319.5,36.0 320.0,35.5 320.5,35.0 320.5,34.0 320.5,33.0 321.0,32.5 321.5,32.0 321.5,31.0 322.0,30.5 322.5,30.0 322.5,29.0 322.5,28.0 323.0,27.5 323.5,27.0 323.5,26.0 324.0,25.5 324.5,25.0 324.5,24.0 325.0,23.5 325.5,23.0 325.5,22.0 326.0,21.5 326.5,21.0 326.5,20.0 327.0,19.5 327.5,19.0 328.0,18.5 328.5,18.0 329.0,17.5 329.5,17.0 329.5,16.0 330.0,15.5 330.5,15.0 331.0,14.5 331.5,14.0 332.0,13.5 332.5,13.0 333.0,12.5 333.5,12.0 334.0,11.5 334.5,11.0 335.0,10.5 336.0,10.5 336.5,10.0 337.0,9.5 337.5,9.0 338.0,8.5 339.0,8.5 339.5,8.0 340.0,7.5 340.5,7.0 341.0,6.5 342.0,6.5 342.5,6.0 343.0,5.5 344.0,5.5 344.5,5.0 345.0,4.5 346.0,4.5 347.0,4.5 347.5,4.0 348.0,3.5 349.0,3.5 350.0,3.5 351.0,3.5 351.5,3.0 352.0,2.5 353.0,2.5 354.0,2.5 355.0,2.5 356.0,2.5 357.0,2.5 358.0,2.5 359.0,2.5 360.0,2.5 361.0,2.5 362.0,2.5 363.0,2.5 364.0,2.5 365.0,2.5 366.0,2.5 367.0,2.5 368.0,2.5 369.0,2.5 370.0,2.5 371.0,2.5 372.0,2.5 373.0,2.5 374.0,2.5 375.0,2.5 376.0,2.5 377.0,2.5 378.0,2.5 379.0,2.5 380.0,2.5 381.0,2.5 382.0,2.5 383.0,2.5 383.5,3.0 383.5,4.0 383.5,5.0 383.0,5.5 382.5,6.0 382.5,7.0 382.5,8.0 382.0,8.5 381.5,9.0 381.5,10.0 381.5,11.0 381.0,11.5 380.5,12.0 380.5,13.0 380.0,13.5 379.5,14.0 379.5,15.0 379.5,16.0 379.0,16.5 378.5,17.0 378.5,18.0 378.5,19.0 378.0,19.5 377.5,20.0 377.5,21.0 377.5,22.0 377.0,22.5 376.5,23.0 376.5,24.0 376.0,24.5 375.5,25.0 375.5,26.0 375.5,27.0 375.0,27.5 374.5,28.0 374.5,29.0 374.5,30.0 374.0,30.5 373.5,31.0 373.5,32.0 373.0,32.5 372.5,33.0 372.5,34.0 372.5,35.0 372.0,35.5 371.5,36.0 371.5,37.0 371.0,37.5 370.5,38.0 370.5,39.0 370.5,40.0 370.0,40.5 369.5,41.0 369.5,42.0 369.5,43.0 369.0,43.5 368.5,44.0 368.5,45.0 368.0,45.5 367.5,46.0 367.5,47.0 367.5,48.0 367.0,48.5 366.5,49.0 366.5,50.0 366.5,51.0 366.0,51.5 365.5,52.0 365.5,53.0 365.0,53.5 364.5,54.0 364.5,55.0 364.5,56.0 364.0,56.5 363.5,57.0 363.5,58.0 363.0,58.5 362.5,59.0 362.5,60.0 362.0,60.5 361.5,61.0 361.5,62.0 361.5,63.0 361.0,63.5 360.5,64.0 360.5,65.0 360.0,65.5 359.5,66.0 359.5,67.0 359.5,68.0 359.5,69.0 359.0,69.5 358.5,70.0 358.5,71.0 358.0,71.5 357.5,72.0 357.5,73.0 357.5,74.0 357.0,74.5 356.5,75.0 356.5,76.0 356.0,76.5 355.5,77.0 356.0,77.5 356.5,78.0 357.0,78.5 357.5,79.0 358.0,79.5 358.5,80.0 359.0,80.5 359.5,81.0 360.0,81.5 360.5,82.0 361.0,82.5 361.5,83.0 362.0,83.5 362.5,84.0 363.0,84.5 363.5,85.0 364.0,85.5 364.5,86.0 365.0,86.5 365.5,87.0 366.0,87.5 366.5,88.0 367.0,88.5 367.5,89.0 368.0,89.5 368.5,90.0 369.0,90.5 370.0,90.5 370.5,91.0 371.0,91.5 371.5,92.0 372.0,92.5 372.5,93.0 373.0,93.5 373.5,94.0 374.0,94.5 374.5,95.0 375.0,95.5 375.5,96.0 376.0,96.5 376.5,97.0 377.0,97.5 377.5,98.0 378.0,98.5 378.5,99.0 379.0,99.5 379.5,100.0 380.0,100.5 380.5,101.0 381.0,101.5 381.5,102.0 382.0,102.5 382.5,103.0 383.0,103.5 383.5,104.0 384.0,104.5 384.5,105.0 385.0,105.5 385.5,106.0 386.0,106.5 386.5,107.0 387.0,107.5 387.5,108.0 388.0,108.5 388.5,109.0 389.0,109.5 389.5,110.0 390.0,110.5 390.5,111.0 391.0,111.5 391.5,112.0 392.0,112.5 392.5,113.0 393.0,113.5 393.5,114.0 394.0,114.5 394.5,115.0 395.0,115.5 395.5,116.0 396.0,116.5 396.5,117.0 397.0,117.5 397.5,118.0 398.0,118.5 398.5,119.0 399.0,119.5 399.5,120.0 400.0,120.5 400.5,121.0 401.0,121.5 401.5,122.0 402.0,122.5 402.5,123.0 403.0,123.5 403.5,124.0 404.0,124.5 404.5,125.0 405.0,125.5 405.5,126.0 406.0,126.5 406.5,127.0 407.0,127.5 407.5,128.0 408.0,128.5 408.5,129.0 409.0,129.5 409.5,130.0 410.0,130.5 410.5,131.0 411.0,131.5 411.5,132.0 412.0,132.5 412.5,133.0 413.0,133.5 413.5,134.0 414.0,134.5 414.5,135.0 415.0,135.5 415.5,136.0 416.0,136.5 416.5,137.0 417.0,137.5 417.5,138.0 418.0,138.5 418.5,139.0 419.0,139.5 419.5,140.0 420.0,140.5 420.5,141.0 421.0,141.5 421.5,142.0 422.0,142.5 422.5,143.0 423.0,143.5 423.5,144.0 424.0,144.5 424.5,145.0 425.0,145.5 425.5,146.0 426.0,146.5 427.0,146.5 427.5,147.0 428.0,147.5 428.5,148.0 429.0,148.5 429.5,149.0 430.0,149.5 430.5,150.0 431.0,150.5 431.5,151.0 432.0,151.5 432.5,152.0 433.0,152.5 433.5,153.0 434.0,153.5 434.5,154.0 435.0,154.5 435.5,155.0 436.0,155.5 436.5,156.0 437.0,156.5 437.5,157.0 438.0,157.5 438.5,158.0 439.0,158.5 439.5,159.0 439.5,160.0 440.0,160.5 440.5,161.0 441.0,161.5 441.5,162.0 442.0,162.5 442.5,163.0 442.5,164.0 443.0,164.5 443.5,165.0 443.5,166.0 444.0,166.5 444.5,167.0 444.5,168.0 445.0,168.5 445.5,169.0 445.5,170.0 446.0,170.5 446.5,171.0 446.5,172.0 446.5,173.0 447.0,173.5 447.5,174.0 447.5,175.0 447.5,176.0 447.5,177.0 447.5,178.0 448.0,178.5 448.5,179.0 448.5,180.0 448.5,181.0 448.5,182.0 448.5,183.0 448.5,184.0 448.5,185.0 448.5,186.0 448.5,187.0 448.5,188.0 448.5,189.0 448.5,190.0 448.5,191.0 448.5,192.0 448.5,193.0 448.5,194.0 448.5,195.0 448.5,196.0 448.5,197.0 448.5,198.0 448.5,199.0 448.5,200.0 448.5,201.0 448.5,202.0 448.5,203.0 448.5,204.0 448.5,205.0 448.5,206.0 448.5,207.0 448.5,208.0 448.5,209.0 448.5,210.0 448.5,211.0 448.5,212.0 448.5,213.0 448.5,214.0 448.5,215.0 448.5,216.0 448.5,217.0 448.5,218.0 448.5,219.0 448.5,220.0 448.5,221.0 448.5,222.0 448.5,223.0 448.5,224.0 448.5,225.0 448.5,226.0 448.5,227.0 448.5,228.0 448.5,229.0 448.5,230.0 448.5,231.0 448.5,232.0 448.5,233.0 448.5,234.0 448.5,235.0 448.5,236.0 448.5,237.0 448.5,238.0 448.5,239.0 448.5,240.0 448.5,241.0 448.5,242.0 448.5,243.0 448.5,244.0 448.5,245.0 448.5,246.0 448.5,247.0 448.5,248.0 448.5,249.0 448.5,250.0 448.5,251.0 448.5,252.0 448.5,253.0 448.5,254.0 448.5,255.0 448.5,256.0 448.5,257.0 448.5,258.0 448.5,259.0 448.5,260.0 448.5,261.0 448.5,262.0 448.5,263.0 448.5,264.0 448.5,265.0 448.5,266.0 448.5,267.0 448.5,268.0 448.5,269.0 448.5,270.0 448.5,271.0 448.5,272.0 448.5,273.0 448.5,274.0 448.5,275.0 448.5,276.0 448.5,277.0 448.5,278.0 448.5,279.0 448.5,280.0 448.5,281.0 448.5,282.0 448.5,283.0 448.5,284.0 448.5,285.0 448.5,286.0 448.5,287.0 448.5,288.0 448.5,289.0 448.5,290.0 448.5,291.0 448.5,292.0 448.5,293.0 448.5,294.0 448.5,295.0 448.5,296.0 448.5,297.0 448.5,298.0 448.5,299.0 448.5,300.0 448.5,301.0 448.5,302.0 448.5,303.0 448.5,304.0 448.5,305.0 448.5,306.0 448.5,307.0 448.5,308.0 448.5,309.0 448.5,310.0 448.5,311.0 448.5,312.0 448.5,313.0 448.5,314.0 448.5,315.0 448.5,316.0 448.5,317.0 448.5,318.0 448.5,319.0 448.5,320.0 448.5,321.0 448.0,321.5 447.5,322.0 447.5,323.0 447.5,324.0 447.5,325.0 447.5,326.0 447.0,326.5 446.5,327.0 446.5,328.0 446.5,329.0 446.0,329.5 445.5,330.0 445.5,331.0 445.5,332.0 445.0,332.5 444.5,333.0 444.5,334.0 444.5,335.0 444.0,335.5 443.5,336.0 443.5,337.0 443.0,337.5 442.5,338.0 442.0,338.5 441.5,339.0 441.5,340.0 441.0,340.5 440.5,341.0 440.0,341.5 439.5,342.0 439.5,343.0 439.0,343.5 438.5,344.0 438.0,344.5 437.5,345.0 437.0,345.5 436.5,346.0 436.0,346.5 435.5,347.0 435.5,348.0 435.0,348.5 434.5,349.0 434.0,349.5 433.5,350.0 433.0,350.5 432.0,350.5 431.5,351.0 431.0,351.5 430.5,352.0 430.0,352.5 429.5,353.0 429.0,353.5 428.5,354.0 428.0,354.5 427.5,355.0 427.0,355.5 426.5,356.0 426.0,356.5 425.5,357.0 425.0,357.5 424.5,358.0 424.0,358.5 423.5,359.0 423.0,359.5 422.5,360.0 422.0,360.5 421.0,360.5 420.5,361.0 420.0,361.5 419.5,362.0 419.0,362.5 418.5,363.0 418.0,363.5 417.5,364.0 417.0,364.5 416.5,365.0 416.0,365.5 415.5,366.0 415.0,366.5 414.5,367.0 414.0,367.5 413.5,368.0 413.0,368.5 412.5,369.0 412.0,369.5 411.5,370.0 411.0,370.5 410.5,371.0 410.0,371.5 409.5,372.0 409.0,372.5 408.5,373.0 408.0,373.5 407.5,374.0 407.0,374.5 406.5,375.0 406.0,375.5 405.0,375.5 404.5,376.0 404.0,376.5 403.5,377.0 403.0,377.5 402.5,378.0 402.0,378.5 401.5,379.0 401.0,379.5 400.5,380.0 400.0,380.5 399.5,381.0 399.0,381.5 398.5,382.0 398.0,382.5 397.5,383.0 397.0,383.5 396.5,384.0 396.0,384.5 395.0,384.5 394.5,385.0 394.0,385.5 393.5,386.0 393.0,386.5 392.5,387.0 392.0,387.5 391.5,388.0 391.0,388.5 390.5,389.0 390.0,389.5 389.5,390.0 389.0,390.5 388.5,391.0 388.0,391.5 387.5,392.0 387.0,392.5 386.5,393.0 386.0,393.5 385.5,394.0 385.0,394.5 384.0,394.5 383.5,395.0 383.0,395.5 382.5,396.0 382.0,396.5 381.5,397.0 381.0,397.5 380.5,398.0 380.0,398.5 379.5,399.0 379.0,399.5 378.5,400.0 378.0,400.5 377.5,401.0 377.0,401.5 376.5,402.0 376.0,402.5 375.0,402.5 374.5,403.0 374.0,403.5 373.5,404.0 373.0,404.5 372.5,405.0 372.0,405.5 371.5,406.0 371.0,406.5 370.5,407.0 370.0,407.5 369.5,408.0 369.0,408.5 368.5,409.0 368.0,409.5 367.0,409.5 366.5,410.0 366.0,410.5 365.5,411.0 365.0,411.5 364.5,412.0 364.0,412.5 363.5,413.0 363.0,413.5 362.5,414.0 362.0,414.5 361.5,415.0 361.0,415.5 360.5,416.0 360.0,416.5 359.0,416.5 358.5,417.0 358.0,417.5 357.5,418.0 357.0,418.5 356.5,419.0 356.0,419.5 355.5,420.0 355.0,420.5 354.5,421.0 354.0,421.5 353.5,422.0 353.0,422.5 352.0,422.5 351.5,423.0 351.0,423.5 350.5,424.0 350.0,424.5 349.5,425.0 349.0,425.5 348.5,426.0 348.0,426.5 347.5,427.0 347.0,427.5 346.5,428.0 346.0,428.5 345.0,428.5 344.5,429.0 344.0,429.5 343.5,430.0 343.0,430.5 342.5,431.0 342.0,431.5 341.5,432.0 341.0,432.5 340.5,433.0 340.0,433.5 339.5,434.0 339.0,434.5 338.0,434.5 337.5,435.0 337.0,435.5 336.5,436.0 336.0,436.5 335.5,437.0 335.0,437.5 334.5,438.0 334.0,438.5 333.5,439.0 333.0,439.5 332.5,440.0 332.0,440.5 331.0,440.5 330.5,441.0 330.0,441.5 329.5,442.0 329.0,442.5 328.5,443.0 328.0,443.5 327.5,444.0 327.0,444.5 326.5,445.0 326.0,445.5 325.5,446.0 325.0,446.5 324.5,447.0 324.0,447.5 323.0,447.5 322.5,448.0 322.0,448.5 321.5,449.0 321.0,449.5 320.5,450.0 320.0,450.5 319.5,451.0 319.0,451.5 318.5,452.0 318.0,452.5 317.5,453.0 317.0,453.5 316.0,453.5 315.5,454.0 315.0,454.5 314.5,455.0 314.0,455.5 313.5,456.0 313.0,456.5 312.5,457.0 312.0,457.5 311.5,458.0 311.0,458.5 310.0,458.5 309.5,459.0 309.0,459.5 308.5,460.0 308.0,460.5 307.5,461.0 307.0,461.5 306.5,462.0 306.0,462.5 305.5,463.0 305.0,463.5 304.0,463.5 303.5,464.0 303.0,464.5 302.5,465.0 302.0,465.5 301.5,466.0 301.0,466.5 300.5,467.0 300.0,467.5 299.5,468.0 299.0,468.5 298.0,468.5 297.5,469.0 297.0,469.5 296.5,470.0 296.0,470.5 295.5,471.0 295.0,471.5 294.5,472.0 294.0,472.5 293.5,473.0 293.0,473.5 292.0,473.5 291.5,474.0 291.0,474.5 290.5,475.0 290.0,475.5 289.5,476.0 289.0,476.5 288.5,477.0 288.0,477.5 287.5,478.0 287.0,478.5 286.5,479.0 286.0,479.5 285.5,480.0 285.0,480.5 284.0,480.5 283.5,481.0 283.0,481.5 282.5,482.0 282.0,482.5 281.5,483.0 281.0,483.5 280.5,484.0 280.0,484.5 279.0,484.5 278.5,485.0 278.0,485.5 277.5,486.0 277.0,486.5 276.5,487.0 276.0,487.5 275.5,488.0 275.0,488.5 274.5,489.0 274.0,489.5 273.0,489.5 272.5,490.0 272.0,490.5 271.5,491.0 271.0,491.5 270.5,492.0 270.0,492.5 269.5,493.0 269.0,493.5 268.5,494.0 268.0,494.5 267.0,494.5 266.5,495.0 266.0,495.5 265.5,496.0 265.0,496.5 264.5,497.0 264.0,497.5 263.5,498.0 263.0,498.5 262.0,498.5 261.5,499.0 261.0,499.5 260.5,500.0 260.0,500.5 259.5,501.0 259.0,501.5 258.5,502.0 258.0,502.5 257.5,503.0 257.0,503.5 256.5,504.0 256.0,504.5 255.0,504.5 254.5,505.0 254.0,505.5 253.5,506.0 253.0,506.5" stroke="none" /><polygon fill="black" points="158.0,409.5 157.0,409.5 156.0,409.5 155.5,409.0 155.0,408.5 154.5,408.0 154.0,407.5 153.5,407.0 153.0,406.5 152.5,406.0 152.0,405.5 151.5,405.0 151.0,404.5 150.5,404.0 150.0,403.5 149.5,403.0 149.0,402.5 148.5,402.0 148.0,401.5 147.5,401.0 147.0,400.5 146.5,400.0 146.0,399.5 145.5,399.0 145.0,398.5 144.5,398.0 144.0,397.5 143.5,397.0 143.0,396.5 142.5,396.0 142.0,395.5 141.5,395.0 141.0,394.5 140.5,394.0 140.0,393.5 139.5,393.0 139.0,392.5 138.5,392.0 138.0,391.5 137.5,391.0 137.0,390.5 136.5,390.0 136.0,389.5 135.5,389.0 135.0,388.5 134.5,388.0 134.0,387.5 133.5,387.0 133.0,386.5 132.5,386.0 132.0,385.5 131.5,385.0 131.0,384.5 130.5,384.0 130.0,383.5 129.5,383.0 129.0,382.5 128.5,382.0 128.0,381.5 127.5,381.0 127.0,380.5 126.5,380.0 126.0,379.5 125.5,379.0 125.0,378.5 124.0,378.5 123.5,378.0 123.0,377.5 122.5,377.0 122.0,376.5 121.5,376.0 121.0,375.5 120.5,375.0 120.0,374.5 119.5,374.0 119.0,373.5 118.5,373.0 118.0,372.5 117.5,372.0 117.0,371.5 116.5,371.0 116.0,370.5 115.5,370.0 115.0,369.5 114.5,369.0 114.0,368.5 113.5,368.0 113.0,367.5 112.5,367.0 112.0,366.5 111.5,366.0 111.0,365.5 110.5,365.0 110.0,364.5 109.5,364.0 109.0,363.5 108.5,363.0 108.0,362.5 107.5,362.0 107.0,361.5 106.5,361.0 106.0,360.5 105.5,360.0 105.0,359.5 104.5,359.0 104.0,358.5 103.5,358.0 103.0,357.5 102.5,357.0 102.0,356.5 101.5,356.0 101.0,355.5 100.5,355.0 100.0,354.5 99.5,354.0 99.0,353.5 98.5,353.0 98.0,352.5 97.5,352.0 97.0,351.5 96.5,351.0 96.0,350.5 95.5,350.0 95.0,349.5 94.5,349.0 94.0,348.5 93.5,348.0 93.0,347.5 92.5,347.0 92.0,346.5 91.5,346.0 91.0,345.5 90.5,345.0 90.0,344.5 89.5,344.0 89.0,343.5 88.5,343.0 88.0,342.5 87.5,342.0 87.0,341.5 86.5,341.0 86.0,340.5 85.5,340.0 85.0,339.5 84.5,339.0 84.0,338.5 83.5,338.0 83.0,337.5 82.5,337.0 82.0,336.5 81.5,336.0 81.0,335.5 80.5,335.0 80.0,334.5 79.5,334.0 79.0,333.5 78.5,333.0 78.0,332.5 77.5,332.0 77.0,331.5 76.5,331.0 76.0,330.5 75.5,330.0 75.0,329.5 74.5,329.0 74.0,328.5 73.5,328.0 73.0,327.5 72.5,327.0 72.0,326.5 71.5,326.0 71.0,325.5 70.5,325.0 70.0,324.5 69.5,324.0 69.0,323.5 68.5,323.0 68.0,322.5 67.5,322.0 67.0,321.5 66.5,321.0 66.0,320.5 65.5,320.0 65.0,319.5 64.5,319.0 64.0,318.5 63.5,318.0 63.0,317.5 62.5,317.0 62.0,316.5 61.5,316.0 61.0,315.5 60.5,315.0 60.0,314.5 59.5,314.0 59.0,313.5 58.5,313.0 58.0,312.5 57.5,312.0 57.0,311.5 56.5,311.0 56.0,310.5 55.5,310.0 55.0,309.5 54.5,309.0 54.0,308.5 53.5,308.0 53.0,307.5 52.5,307.0 52.0,306.5 51.5,306.0 51.0,305.5 50.5,305.0 50.0,304.5 49.5,304.0 49.0,303.5 48.5,303.0 48.0,302.5 47.5,302.0 47.0,301.5 46.5,301.0 46.0,300.5 45.5,300.0 45.0,299.5 44.5,299.0 44.0,298.5 43.5,298.0 43.0,297.5 42.5,297.0 42.0,296.5 41.5,296.0 41.0,295.5 40.5,295.0 40.0,294.5 39.5,294.0 39.0,293.5 38.5,293.0 38.0,292.5 37.5,292.0 37.0,291.5 36.5,291.0 36.0,290.5 35.5,290.0 35.0,289.5 34.5,289.0 34.0,288.5 33.5,288.0 33.0,287.5 32.5,287.0 32.0,286.5 31.5,286.0 31.0,285.5 30.5,285.0 30.0,284.5 29.5,284.0 29.0,283.5 28.5,283.0 28.0,282.5 27.5,282.0 27.0,281.5 26.5,281.0 26.0,280.5 25.5,280.0 25.0,279.5 24.5,279.0 24.0,278.5 23.5,278.0 23.0,277.5 22.5,277.0 22.0,276.5 21.5,276.0 21.0,275.5 20.5,275.0 20.0,274.5 19.5,274.0 19.0,273.5 18.5,273.0 18.0,272.5 17.5,272.0 17.0,271.5 16.5,271.0 16.0,270.5 15.5,270.0 15.0,269.5 14.5,269.0 14.0,268.5 13.5,268.0 13.0,267.5 12.5,267.0 12.0,266.5 11.5,266.0 11.0,265.5 10.5,265.0 10.0,264.5 9.5,264.0 9.0,263.5 8.5,263.0 8.0,262.5 7.5,262.0 7.0,261.5 6.5,261.0 6.5,260.0 6.0,259.5 5.5,259.0 5.5,258.0 5.0,257.5 4.5,257.0 4.5,256.0 4.5,255.0 4.0,254.5 3.5,254.0 3.5,253.0 3.5,252.0 3.5,251.0 3.0,250.5 2.5,250.0 2.5,249.0 2.5,248.0 2.5,247.0 2.5,246.0 2.5,245.0 2.5,244.0 2.5,243.0 2.5,242.0 3.0,241.5 3.5,241.0 3.5,240.0 3.5,239.0 3.5,238.0 4.0,237.5 4.5,237.0 4.5,236.0 5.0,235.5 5.5,235.0 5.5,234.0 6.0,233.5 6.5,233.0 6.5,232.0 7.0,231.5 7.5,231.0 7.5,230.0 8.0,229.5 8.5,229.0 9.0,228.5 9.5,228.0 10.0,227.5 10.5,227.0 11.0,226.5 11.5,226.0 12.0,225.5 12.5,225.0 13.0,224.5 13.5,224.0 14.0,223.5 14.5,223.0 15.0,222.5 15.5,222.0 16.0,221.5 16.5,221.0 17.0,220.5 17.5,220.0 18.0,219.5 18.5,219.0 19.0,218.5 19.5,218.0 20.0,217.5 20.5,217.0 21.0,216.5 21.5,216.0 22.0,215.5 22.5,215.0 23.0,214.5 23.5,214.0 24.0,213.5 24.5,213.0 25.0,212.5 25.5,212.0 26.0,211.5 26.5,211.0 27.0,210.5 27.5,210.0 28.0,209.5 28.5,209.0 29.0,208.5 29.5,208.0 30.0,207.5 30.5,207.0 31.0,206.5 31.5,206.0 32.0,205.5 32.5,205.0 33.0,204.5 33.5,204.0 34.0,203.5 34.5,203.0 35.0,202.5 35.5,202.0 36.0,201.5 36.5,201.0 37.0,200.5 37.5,200.0 38.0,199.5 38.5,199.0 39.0,198.5 39.5,198.0 40.0,197.5 40.5,197.0 41.0,196.5 41.5,196.0 42.0,195.5 42.5,195.0 43.0,194.5 43.5,194.0 44.0,193.5 44.5,193.0 45.0,192.5 45.5,192.0 46.0,191.5 46.5,191.0 47.0,190.5 47.5,190.0 48.0,189.5 48.5,189.0 49.0,188.5 49.5,188.0 50.0,187.5 50.5,187.0 51.0,186.5 51.5,186.0 52.0,185.5 52.5,185.0 53.0,184.5 53.5,184.0 54.0,183.5 54.5,183.0 55.0,182.5 55.5,182.0 56.0,181.5 56.5,181.0 57.0,180.5 57.5,180.0 58.0,179.5 58.5,179.0 59.0,178.5 59.5,178.0 60.0,177.5 60.5,177.0 61.0,176.5 61.5,176.0 62.0,175.5 62.5,175.0 63.0,174.5 63.5,174.0 64.0,173.5 64.5,173.0 65.0,172.5 65.5,172.0 66.0,171.5 66.5,171.0 67.0,170.5 67.5,170.0 68.0,169.5 68.5,169.0 69.0,168.5 69.5,168.0 70.0,167.5 70.5,167.0 71.0,166.5 71.5,166.0 72.0,165.5 72.5,165.0 73.0,164.5 73.5,164.0 74.0,163.5 74.5,163.0 75.0,162.5 75.5,162.0 76.0,161.5 76.5,161.0 77.0,160.5 77.5,160.0 78.0,159.5 78.5,159.0 79.0,158.5 79.5,158.0 80.0,157.5 80.5,157.0 81.0,156.5 81.5,156.0 82.0,155.5 82.5,155.0 83.0,154.5 83.5,154.0 84.0,153.5 84.5,153.0 85.0,152.5 85.5,152.0 86.0,151.5 86.5,151.0 87.0,150.5 87.5,150.0 88.0,149.5 88.5,149.0 89.0,148.5 89.5,148.0 90.0,147.5 90.5,147.0 91.0,146.5 91.5,146.0 92.0,145.5 92.5,145.0 93.0,144.5 93.5,144.0 94.0,143.5 94.5,143.0 95.0,142.5 95.5,142.0 96.0,141.5 96.5,141.0 97.0,140.5 97.5,140.0 98.0,139.5 98.5,139.0 99.0,138.5 99.5,138.0 100.0,137.5 100.5,137.0 101.0,136.5 101.5,136.0 102.0,135.5 102.5,135.0 103.0,134.5 103.5,134.0 104.0,133.5 104.5,133.0 105.0,132.5 105.5,132.0 106.0,131.5 106.5,131.0 107.0,130.5 107.5,130.0 108.0,129.5 108.5,129.0 109.0,128.5 109.5,128.0 110.0,127.5 110.5,127.0 111.0,126.5 111.5,126.0 112.0,125.5 112.5,125.0 113.0,124.5 113.5,124.0 114.0,123.5 114.5,123.0 115.0,122.5 115.5,122.0 116.0,121.5 116.5,121.0 117.0,120.5 117.5,120.0 118.0,119.5 118.5,119.0 119.0,118.5 119.5,118.0 120.0,117.5 120.5,117.0 121.0,116.5 121.5,116.0 122.0,115.5 122.5,115.0 123.0,114.5 123.5,114.0 124.0,113.5 124.5,113.0 125.0,112.5 125.5,112.0 126.0,111.5 126.5,111.0 127.0,110.5 127.5,110.0 128.0,109.5 128.5,109.0 129.0,108.5 129.5,108.0 130.0,107.5 130.5,107.0 131.0,106.5 131.5,106.0 132.0,105.5 133.0,105.5 133.5,105.0 133.5,104.0 134.0,103.5 134.5,103.0 135.0,102.5 135.5,102.0 136.0,101.5 136.5,101.0 137.0,100.5 137.5,100.0 138.0,99.5 138.5,99.0 139.0,98.5 139.5,98.0 140.0,97.5 140.5,97.0 141.0,96.5 142.0,96.5 142.5,96.0 143.0,95.5 143.5,95.0 144.0,94.5 144.5,94.0 145.0,93.5 145.5,93.0 146.0,92.5 146.5,92.0 147.0,91.5 147.5,91.0 148.0,90.5 148.5,90.0 149.0,89.5 149.5,89.0 150.0,88.5 150.5,88.0 151.0,87.5 151.5,87.0 152.0,86.5 152.5,86.0 153.0,85.5 153.5,85.0 154.0,84.5 154.5,84.0 155.0,83.5 155.5,83.0 156.0,82.5 156.5,82.0 157.0,81.5 158.0,81.5 158.5,82.0 158.5,83.0 158.5,84.0 158.5,85.0 158.5,86.0 158.5,87.0 158.5,88.0 158.5,89.0 158.5,90.0 158.5,91.0 158.5,92.0 158.5,93.0 158.5,94.0 158.5,95.0 158.5,96.0 158.5,97.0 158.5,98.0 158.5,99.0 158.5,100.0 158.5,101.0 158.5,102.0 158.5,103.0 158.5,104.0 158.5,105.0 158.5,106.0 158.5,107.0 158.5,108.0 158.5,109.0 158.5,110.0 158.5,111.0 158.5,112.0 158.5,113.0 158.5,114.0 158.5,115.0 158.5,116.0 158.5,117.0 158.5,118.0 158.5,119.0 158.5,120.0 158.5,121.0 158.5,122.0 158.5,123.0 158.5,124.0 158.5,125.0 158.5,126.0 158.5,127.0 158.5,128.0 158.5,129.0 158.5,130.0 158.5,131.0 158.5,132.0 158.5,133.0 158.5,134.0 158.5,135.0 158.5,136.0 158.5,137.0 158.5,138.0 158.5,139.0 158.5,140.0 158.5,141.0 158.5,142.0 158.5,143.0 158.5,144.0 158.5,145.0 158.5,146.0 158.5,147.0 158.5,148.0 158.5,149.0 158.5,150.0 158.5,151.0 158.5,152.0 158.5,153.0 158.5,154.0 158.5,155.0 158.5,156.0 158.0,156.5 157.5,157.0 157.5,158.0 157.0,158.5 156.5,159.0 156.0,159.5 155.5,160.0 155.0,160.5 154.5,161.0 154.0,161.5 153.5,162.0 153.0,162.5 152.5,163.0 152.0,163.5 151.5,164.0 151.0,164.5 150.5,165.0 150.0,165.5 149.5,166.0 149.0,166.5 148.5,167.0 148.0,167.5 147.5,168.0 147.0,168.5 146.5,169.0 146.0,169.5 145.5,170.0 145.0,170.5 144.5,171.0 144.0,171.5 143.5,172.0 143.0,172.5 142.5,173.0 142.0,173.5 141.5,174.0 141.0,174.5 140.5,175.0 140.0,175.5 139.5,176.0 139.0,176.5 138.5,177.0 138.0,177.5 137.5,178.0 137.0,178.5 136.5,179.0 136.0,179.5 135.5,180.0 135.0,180.5 134.5,181.0 134.0,181.5 133.5,182.0 133.0,182.5 132.5,183.0 132.0,183.5 131.5,184.0 131.0,184.5 130.5,185.0 130.0,185.5 129.5,186.0 129.0,186.5 128.5,187.0 128.0,187.5 127.5,188.0 127.0,188.5 126.5,189.0 126.0,189.5 125.5,190.0 125.0,190.5 124.5,191.0 124.0,191.5 123.5,192.0 123.0,192.5 122.5,193.0 122.0,193.5 121.5,194.0 121.0,194.5 120.5,195.0 120.0,195.5 119.5,196.0 119.0,196.5 118.5,197.0 118.0,197.5 117.5,198.0 117.0,198.5 116.5,199.0 116.0,199.5 115.5,200.0 115.0,200.5 114.5,201.0 114.0,201.5 113.5,202.0 113.0,202.5 112.5,203.0 112.0,203.5 111.5,204.0 111.0,204.5 110.5,205.0 110.0,205.5 109.5,206.0 109.0,206.5 108.5,207.0 108.0,207.5 107.5,208.0 107.0,208.5 106.5,209.0 106.0,209.5 105.5,210.0 105.0,210.5 104.5,211.0 104.0,211.5 103.5,212.0 103.0,212.5 102.5,213.0 102.0,213.5 101.5,214.0 101.0,214.5 100.5,215.0 100.0,215.5 99.5,216.0 99.0,216.5 98.5,217.0 98.0,217.5 97.5,218.0 97.0,218.5 96.5,219.0 96.0,219.5 95.5,220.0 95.0,220.5 94.5,221.0 94.0,221.5 93.5,222.0 93.0,222.5 92.5,223.0 92.0,223.5 91.5,224.0 91.0,224.5 90.5,225.0 90.0,225.5 89.5,226.0 89.0,226.5 88.5,227.0 88.0,227.5 87.5,228.0 87.0,228.5 86.5,229.0 86.0,229.5 85.5,230.0 85.0,230.5 84.5,231.0 84.0,231.5 83.5,232.0 83.0,232.5 82.5,233.0 82.0,233.5 81.5,234.0 81.0,234.5 80.5,235.0 80.0,235.5 79.5,236.0 79.0,236.5 78.5,237.0 78.0,237.5 77.5,238.0 77.0,238.5 76.5,239.0 76.0,239.5 75.5,240.0 75.0,240.5 74.5,241.0 74.0,241.5 73.5,242.0 73.0,242.5 72.0,242.5 71.5,243.0 71.0,243.5 70.5,244.0 70.0,244.5 69.5,245.0 69.5,246.0 69.5,247.0 70.0,247.5 70.5,248.0 71.0,248.5 71.5,249.0 72.0,249.5 72.5,250.0 73.0,250.5 73.5,251.0 74.0,251.5 74.5,252.0 75.0,252.5 75.5,253.0 76.0,253.5 76.5,254.0 77.0,254.5 77.5,255.0 78.0,255.5 78.5,256.0 79.0,256.5 79.5,257.0 80.0,257.5 80.5,258.0 81.0,258.5 81.5,259.0 82.0,259.5 82.5,260.0 83.0,260.5 83.5,261.0 84.0,261.5 84.5,262.0 85.0,262.5 85.5,263.0 86.0,263.5 86.5,264.0 87.0,264.5 87.5,265.0 88.0,265.5 88.5,266.0 89.0,266.5 89.5,267.0 90.0,267.5 90.5,268.0 91.0,268.5 91.5,269.0 92.0,269.5 92.5,270.0 93.0,270.5 93.5,271.0 94.0,271.5 94.5,272.0 95.0,272.5 95.5,273.0 96.0,273.5 96.5,274.0 97.0,274.5 97.5,275.0 98.0,275.5 98.5,276.0 99.0,276.5 99.5,277.0 100.0,277.5 100.5,278.0 101.0,278.5 101.5,279.0 102.0,279.5 102.5,280.0 103.0,280.5 103.5,281.0 104.0,281.5 104.5,282.0 105.0,282.5 105.5,283.0 106.0,283.5 106.5,284.0 107.0,284.5 107.5,285.0 108.0,285.5 108.5,286.0 109.0,286.5 109.5,287.0 110.0,287.5 110.5,288.0 111.0,288.5 111.5,289.0 112.0,289.5 112.5,290.0 113.0,290.5 113.5,291.0 114.0,291.5 114.5,292.0 115.0,292.5 115.5,293.0 116.0,293.5 116.5,294.0 117.0,294.5 117.5,295.0 118.0,295.5 118.5,296.0 119.0,296.5 119.5,297.0 120.0,297.5 120.5,298.0 121.0,298.5 121.5,299.0 122.0,299.5 122.5,300.0 123.0,300.5 123.5,301.0 124.0,301.5 124.5,302.0 125.0,302.5 125.5,303.0 126.0,303.5 126.5,304.0 127.0,304.5 127.5,305.0 128.0,305.5 128.5,306.0 129.0,306.5 129.5,307.0 130.0,307.5 130.5,308.0 131.0,308.5 131.5,309.0 132.0,309.5 132.5,310.0 133.0,310.5 133.5,311.0 134.0,311.5 134.5,312.0 135.0,312.5 135.5,313.0 136.0,313.5 136.5,314.0 137.0,314.5 137.5,315.0 138.0,315.5 138.5,316.0 139.0,316.5 139.5,317.0 140.0,317.5 140.5,318.0 141.0,318.5 141.5,319.0 142.0,319.5 142.5,320.0 143.0,320.5 143.5,321.0 144.0,321.5 144.5,322.0 145.0,322.5 145.5,323.0 146.0,323.5 146.5,324.0 147.0,324.5 147.5,325.0 148.0,325.5 148.5,326.0 149.0,326.5 149.5,327.0 150.0,327.5 150.5,328.0 151.0,328.5 151.5,329.0 152.0,329.5 152.5,330.0 153.0,330.5 154.0,330.5 154.5,331.0 155.0,331.5 155.5,332.0 155.5,333.0 156.0,333.5 156.5,334.0 157.0,334.5 157.5,335.0 158.0,335.5 158.5,336.0 158.5,337.0 158.5,338.0 158.5,339.0 158.5,340.0 158.5,341.0 158.5,342.0 158.5,343.0 158.5,344.0 158.5,345.0 158.5,346.0 158.5,347.0 158.5,348.0 158.5,349.0 158.5,350.0 158.5,351.0 158.5,352.0 158.5,353.0 158.5,354.0 158.5,355.0 158.5,356.0 158.5,357.0 158.5,358.0 158.5,359.0 158.5,360.0 158.5,361.0 158.5,362.0 158.5,363.0 158.5,364.0 158.5,365.0 158.5,366.0 158.5,367.0 158.5,368.0 158.5,369.0 158.5,370.0 158.5,371.0 158.5,372.0 158.5,373.0 158.5,374.0 158.5,375.0 158.5,376.0 158.5,377.0 158.5,378.0 158.5,379.0 158.5,380.0 158.5,381.0 158.5,382.0 158.5,383.0 158.5,384.0 158.5,385.0 158.5,386.0 158.5,387.0 158.5,388.0 158.5,389.0 158.5,390.0 158.5,391.0 158.5,392.0 158.5,393.0 158.5,394.0 158.5,395.0 158.5,396.0 158.5,397.0 158.5,398.0 158.5,399.0 158.5,400.0 158.5,401.0 158.5,402.0 158.5,403.0 158.5,404.0 158.5,405.0 158.5,406.0 158.5,407.0 158.5,408.0 158.5,409.0 158.0,409.5" stroke="none" /><polygon fill="black" points="472.0,410.5 471.5,410.0 471.0,409.5 470.5,409.0 470.5,408.0 470.5,407.0 470.5,406.0 470.5,405.0 470.5,404.0 470.5,403.0 470.5,402.0 470.5,401.0 470.5,400.0 470.5,399.0 470.5,398.0 470.5,397.0 470.5,396.0 470.5,395.0 470.5,394.0 470.5,393.0 470.5,392.0 470.5,391.0 470.5,390.0 470.5,389.0 470.5,388.0 470.5,387.0 470.5,386.0 470.5,385.0 470.5,384.0 470.5,383.0 470.5,382.0 470.5,381.0 470.5,380.0 470.5,379.0 470.5,378.0 470.5,377.0 470.5,376.0 470.5,375.0 470.5,374.0 470.5,373.0 470.5,372.0 470.5,371.0 470.5,370.0 470.5,369.0 470.5,368.0 470.5,367.0 470.5,366.0 470.5,365.0 470.5,364.0 470.5,363.0 470.5,362.0 470.5,361.0 470.5,360.0 470.5,359.0 470.5,358.0 470.5,357.0 470.5,356.0 470.5,355.0 470.5,354.0 470.5,353.0 470.5,352.0 470.5,351.0 470.5,350.0 470.5,349.0 470.5,348.0 470.5,347.0 470.5,346.0 470.5,345.0 470.5,344.0 470.5,343.0 470.5,342.0 470.5,341.0 470.5,340.0 470.5,339.0 470.5,338.0 470.5,337.0 470.5,336.0 471.0,335.5 471.5,335.0 472.0,334.5 472.5,334.0 473.0,333.5 473.5,333.0 474.0,332.5 474.5,332.0 475.0,331.5 475.5,331.0 476.0,330.5 476.5,330.0 477.0,329.5 477.5,329.0 478.0,328.5 478.5,328.0 479.0,327.5 479.5,327.0 480.0,326.5 480.5,326.0 481.0,325.5 481.5,325.0 482.0,324.5 482.5,324.0 483.0,323.5 483.5,323.0 484.0,322.5 484.5,322.0 485.0,321.5 485.5,321.0 486.0,320.5 486.5,320.0 487.0,319.5 487.5,319.0 488.0,318.5 488.5,318.0 489.0,317.5 489.5,317.0 490.0,316.5 490.5,316.0 491.0,315.5 491.5,315.0 492.0,314.5 492.5,314.0 493.0,313.5 493.5,313.0 494.0,312.5 494.5,312.0 495.0,311.5 495.5,311.0 496.0,310.5 496.5,310.0 497.0,309.5 497.5,309.0 498.0,308.5 498.5,308.0 499.0,307.5 499.5,307.0 500.0,306.5 500.5,306.0 501.0,305.5 501.5,305.0 502.0,304.5 502.5,304.0 503.0,303.5 503.5,303.0 504.0,302.5 504.5,302.0 505.0,301.5 505.5,301.0 506.0,300.5 506.5,300.0 507.0,299.5 507.5,299.0 508.0,298.5 508.5,298.0 509.0,297.5 509.5,297.0 510.0,296.5 510.5,296.0 511.0,295.5 511.5,295.0 512.0,294.5 512.5,294.0 513.0,293.5 513.5,293.0 514.0,292.5 514.5,292.0 515.0,291.5 515.5,291.0 516.0,290.5 516.5,290.0 517.0,289.5 517.5,289.0 518.0,288.5 518.5,288.0 519.0,287.5 519.5,287.0 520.0,286.5 520.5,286.0 521.0,285.5 521.5,285.0 522.0,284.5 522.5,284.0 523.0,283.5 523.5,283.0 524.0,282.5 524.5,282.0 525.0,281.5 525.5,281.0 526.0,280.5 526.5,280.0 527.0,279.5 527.5,279.0 528.0,278.5 528.5,278.0 529.0,277.5 529.5,277.0 530.0,276.5 530.5,276.0 531.0,275.5 531.5,275.0 532.0,274.5 532.5,274.0 533.0,273.5 533.5,273.0 534.0,272.5 534.5,272.0 535.0,271.5 535.5,271.0 536.0,270.5 536.5,270.0 537.0,269.5 537.5,269.0 538.0,268.5 538.5,268.0 539.0,267.5 539.5,267.0 540.0,266.5 540.5,266.0 541.0,265.5 541.5,265.0 542.0,264.5 542.5,264.0 543.0,263.5 543.5,263.0 544.0,262.5 544.5,262.0 545.0,261.5 545.5,261.0 546.0,260.5 546.5,260.0 547.0,259.5 547.5,259.0 548.0,258.5 548.5,258.0 549.0,257.5 549.5,257.0 550.0,256.5 550.5,256.0 551.0,255.5 551.5,255.0 552.0,254.5 552.5,254.0 553.0,253.5 553.5,253.0 554.0,252.5 554.5,252.0 555.0,251.5 555.5,251.0 556.0,250.5 556.5,250.0 557.0,249.5 557.5,249.0 558.0,248.5 558.5,248.0 559.0,247.5 559.5,247.0 560.0,246.5 560.5,246.0 560.0,245.5 559.5,245.0 559.0,244.5 558.5,244.0 558.0,243.5 557.5,243.0 557.0,242.5 556.5,242.0 556.0,241.5 555.5,241.0 555.0,240.5 554.5,240.0 554.0,239.5 553.5,239.0 553.0,238.5 552.5,238.0 552.0,237.5 551.5,237.0 551.0,236.5 550.5,236.0 550.0,235.5 549.5,235.0 549.0,234.5 548.0,234.5 547.5,234.0 547.0,233.5 546.5,233.0 546.0,232.5 545.5,232.0 545.0,231.5 544.5,231.0 544.0,230.5 543.5,230.0 543.0,229.5 542.5,229.0 542.0,228.5 541.5,228.0 541.0,227.5 540.5,227.0 540.0,226.5 539.5,226.0 539.0,225.5 538.5,225.0 538.5,224.0 538.0,223.5 537.5,223.0 537.0,222.5 536.5,222.0 536.0,221.5 535.0,221.5 534.5,221.0 534.0,220.5 533.5,220.0 533.0,219.5 532.5,219.0 532.0,218.5 531.5,218.0 531.0,217.5 530.5,217.0 530.0,216.5 529.5,216.0 529.0,215.5 528.5,215.0 528.0,214.5 527.5,214.0 527.0,213.5 526.5,213.0 526.0,212.5 525.5,212.0 525.0,211.5 524.5,211.0 524.0,210.5 523.5,210.0 523.0,209.5 522.5,209.0 522.0,208.5 521.5,208.0 521.0,207.5 520.5,207.0 520.0,206.5 519.5,206.0 519.0,205.5 518.5,205.0 518.0,204.5 517.5,204.0 517.0,203.5 516.5,203.0 516.0,202.5 515.5,202.0 515.0,201.5 514.5,201.0 514.0,200.5 513.5,200.0 513.0,199.5 512.5,199.0 512.0,198.5 511.5,198.0 511.0,197.5 510.5,197.0 510.0,196.5 509.5,196.0 509.0,195.5 508.5,195.0 508.0,194.5 507.5,194.0 507.0,193.5 506.5,193.0 506.0,192.5 505.5,192.0 505.0,191.5 504.5,191.0 504.0,190.5 503.5,190.0 503.0,189.5 502.5,189.0 502.0,188.5 501.5,188.0 501.0,187.5 500.5,187.0 500.0,186.5 499.5,186.0 499.0,185.5 498.5,185.0 498.0,184.5 497.5,184.0 497.0,183.5 496.5,183.0 496.0,182.5 495.5,182.0 495.0,181.5 494.5,181.0 494.0,180.5 493.5,180.0 493.0,179.5 492.5,179.0 492.0,178.5 491.5,178.0 491.0,177.5 490.5,177.0 490.0,176.5 489.5,176.0 489.0,175.5 488.5,175.0 488.0,174.5 487.5,174.0 487.0,173.5 486.5,173.0 486.0,172.5 485.5,172.0 485.0,171.5 484.5,171.0 484.0,170.5 483.5,170.0 483.0,169.5 482.5,169.0 482.0,168.5 481.5,168.0 481.0,167.5 480.5,167.0 480.0,166.5 479.5,166.0 479.0,165.5 478.5,165.0 478.0,164.5 477.5,164.0 477.0,163.5 476.5,163.0 476.0,162.5 475.5,162.0 475.0,161.5 474.5,161.0 474.0,160.5 473.5,160.0 473.0,159.5 472.5,159.0 472.0,158.5 471.5,158.0 471.5,157.0 471.0,156.5 470.5,156.0 470.5,155.0 470.5,154.0 470.5,153.0 470.5,152.0 470.5,151.0 470.5,150.0 470.5,149.0 470.5,148.0 470.5,147.0 470.5,146.0 470.5,145.0 470.5,144.0 470.5,143.0 470.5,142.0 470.5,141.0 470.5,140.0 470.5,139.0 470.5,138.0 470.5,137.0 470.5,136.0 470.5,135.0 470.5,134.0 470.5,133.0 470.5,132.0 470.5,131.0 470.5,130.0 470.5,129.0 470.5,128.0 470.5,127.0 470.5,126.0 470.5,125.0 470.5,124.0 470.5,123.0 470.5,122.0 470.5,121.0 470.5,120.0 470.5,119.0 470.5,118.0 470.5,117.0 470.5,116.0 470.5,115.0 470.5,114.0 470.5,113.0 470.5,112.0 470.5,111.0 470.5,110.0 470.5,109.0 470.5,108.0 470.5,107.0 470.5,106.0 470.5,105.0 470.5,104.0 470.5,103.0 470.5,102.0 470.5,101.0 470.5,100.0 470.5,99.0 470.5,98.0 470.5,97.0 470.5,96.0 470.5,95.0 470.5,94.0 470.5,93.0 470.5,92.0 470.5,91.0 470.5,90.0 470.5,89.0 470.5,88.0 470.5,87.0 470.5,86.0 470.5,85.0 470.5,84.0 470.5,83.0 471.0,82.5 471.5,82.0 472.0,81.5 472.5,82.0 473.0,82.5 473.5,83.0 474.0,83.5 474.5,84.0 475.0,84.5 475.5,85.0 476.0,85.5 476.5,86.0 477.0,86.5 477.5,87.0 478.0,87.5 478.5,88.0 479.0,88.5 479.5,89.0 480.0,89.5 480.5,90.0 481.0,90.5 482.0,90.5 482.5,91.0 483.0,91.5 483.5,92.0 484.0,92.5 484.5,93.0 485.0,93.5 485.5,94.0 486.0,94.5 486.5,95.0 487.0,95.5 487.5,96.0 488.0,96.5 488.5,97.0 488.5,98.0 489.0,98.5 490.0,98.5 490.5,99.0 491.0,99.5 491.5,100.0 492.0,100.5 492.5,101.0 493.0,101.5 493.5,102.0 494.0,102.5 494.5,103.0 495.0,103.5 495.5,104.0 496.0,104.5 496.5,105.0 497.0,105.5 497.5,106.0 498.0,106.5 498.5,107.0 499.0,107.5 499.5,108.0 500.0,108.5 500.5,109.0 501.0,109.5 501.5,110.0 502.0,110.5 502.5,111.0 503.0,111.5 503.5,112.0 504.0,112.5 504.5,113.0 505.0,113.5 505.5,114.0 506.0,114.5 506.5,115.0 507.0,115.5 507.5,116.0 508.0,116.5 508.5,117.0 509.0,117.5 509.5,118.0 510.0,118.5 510.5,119.0 511.0,119.5 511.5,120.0 512.0,120.5 512.5,121.0 513.0,121.5 513.5,122.0 514.0,122.5 514.5,123.0 515.0,123.5 515.5,124.0 516.0,124.5 516.5,125.0 517.0,125.5 517.5,126.0 518.0,126.5 518.5,127.0 519.0,127.5 519.5,128.0 520.0,128.5 520.5,129.0 521.0,129.5 521.5,130.0 522.0,130.5 522.5,131.0 523.0,131.5 523.5,132.0 524.0,132.5 524.5,133.0 525.0,133.5 525.5,134.0 526.0,134.5 526.5,135.0 527.0,135.5 527.5,136.0 528.0,136.5 528.5,137.0 529.0,137.5 529.5,138.0 530.0,138.5 530.5,139.0 531.0,139.5 531.5,140.0 532.0,140.5 532.5,141.0 533.0,141.5 533.5,142.0 534.0,142.5 534.5,143.0 535.0,143.5 535.5,144.0 536.0,144.5 536.5,145.0 537.0,145.5 537.5,146.0 538.0,146.5 538.5,147.0 539.0,147.5 539.5,148.0 540.0,148.5 540.5,149.0 541.0,149.5 541.5,150.0 542.0,150.5 542.5,151.0 543.0,151.5 543.5,152.0 544.0,152.5 544.5,153.0 545.0,153.5 545.5,154.0 546.0,154.5 546.5,155.0 547.0,155.5 547.5,156.0 548.0,156.5 548.5,157.0 549.0,157.5 549.5,158.0 550.0,158.5 550.5,159.0 551.0,159.5 551.5,160.0 552.0,160.5 552.5,161.0 553.0,161.5 553.5,162.0 554.0,162.5 554.5,163.0 555.0,163.5 555.5,164.0 556.0,164.5 556.5,165.0 557.0,165.5 557.5,166.0 558.0,166.5 558.5,167.0 559.0,167.5 559.5,168.0 560.0,168.5 560.5,169.0 561.0,169.5 561.5,170.0 562.0,170.5 562.5,171.0 563.0,171.5 563.5,172.0 564.0,172.5 564.5,173.0 565.0,173.5 565.5,174.0 566.0,174.5 566.5,175.0 567.0,175.5 567.5,176.0 568.0,176.5 568.5,177.0 569.0,177.5 569.5,178.0 570.0,178.5 570.5,179.0 571.0,179.5 571.5,180.0 572.0,180.5 572.5,181.0 573.0,181.5 573.5,182.0 574.0,182.5 574.5,183.0 575.0,183.5 575.5,184.0 576.0,184.5 576.5,185.0 577.0,185.5 577.5,186.0 578.0,186.5 578.5,187.0 579.0,187.5 579.5,188.0 580.0,188.5 580.5,189.0 581.0,189.5 581.5,190.0 582.0,190.5 582.5,191.0 583.0,191.5 583.5,192.0 584.0,192.5 584.5,193.0 585.0,193.5 585.5,194.0 586.0,194.5 586.5,195.0 587.0,195.5 587.5,196.0 588.0,196.5 588.5,197.0 589.0,197.5 589.5,198.0 590.0,198.5 590.5,199.0 591.0,199.5 591.5,200.0 592.0,200.5 592.5,201.0 593.0,201.5 593.5,202.0 594.0,202.5 594.5,203.0 595.0,203.5 595.5,204.0 596.0,204.5 596.5,205.0 597.0,205.5 597.5,206.0 598.0,206.5 598.5,207.0 599.0,207.5 599.5,208.0 600.0,208.5 600.5,209.0 601.0,209.5 601.5,210.0 602.0,210.5 602.5,211.0 603.0,211.5 603.5,212.0 604.0,212.5 604.5,213.0 605.0,213.5 605.5,214.0 606.0,214.5 606.5,215.0 607.0,215.5 607.5,216.0 608.0,216.5 608.5,217.0 609.0,217.5 609.5,218.0 610.0,218.5 610.5,219.0 611.0,219.5 611.5,220.0 612.0,220.5 612.5,221.0 613.0,221.5 613.5,222.0 614.0,222.5 614.5,223.0 615.0,223.5 615.5,224.0 616.0,224.5 616.5,225.0 617.0,225.5 617.5,226.0 618.0,226.5 618.5,227.0 619.0,227.5 619.5,228.0 620.0,228.5 620.5,229.0 620.5,230.0 621.0,230.5 621.5,231.0 622.0,231.5 622.5,232.0 622.5,233.0 623.0,233.5 623.5,234.0 623.5,235.0 624.0,235.5 624.5,236.0 624.5,237.0 624.5,238.0 625.0,238.5 625.5,239.0 625.5,240.0 625.5,241.0 625.5,242.0 626.0,242.5 626.5,243.0 626.5,244.0 626.5,245.0 626.5,246.0 626.5,247.0 626.5,248.0 626.5,249.0 626.5,250.0 626.0,250.5 625.5,251.0 625.5,252.0 625.5,253.0 625.5,254.0 625.0,254.5 624.5,255.0 624.5,256.0 624.5,257.0 624.0,257.5 623.5,258.0 623.5,259.0 623.0,259.5 622.5,260.0 622.0,260.5 621.5,261.0 621.5,262.0 621.0,262.5 620.5,263.0 620.0,263.5 619.5,264.0 619.0,264.5 618.5,265.0 618.0,265.5 617.5,266.0 617.0,266.5 616.5,267.0 616.0,267.5 615.5,268.0 615.0,268.5 614.5,269.0 614.0,269.5 613.5,270.0 613.0,270.5 612.5,271.0 612.0,271.5 611.5,272.0 611.0,272.5 610.5,273.0 610.0,273.5 609.5,274.0 609.0,274.5 608.5,275.0 608.0,275.5 607.5,276.0 607.0,276.5 606.5,277.0 606.0,277.5 605.5,278.0 605.0,278.5 604.5,279.0 604.0,279.5 603.5,280.0 603.0,280.5 602.5,281.0 602.0,281.5 601.5,282.0 601.0,282.5 600.5,283.0 600.0,283.5 599.5,284.0 599.0,284.5 598.5,285.0 598.0,285.5 597.5,286.0 597.0,286.5 596.5,287.0 596.0,287.5 595.5,288.0 595.0,288.5 594.5,289.0 594.0,289.5 593.5,290.0 593.0,290.5 592.5,291.0 592.0,291.5 591.5,292.0 591.0,292.5 590.5,293.0 590.0,293.5 589.5,294.0 589.0,294.5 588.5,295.0 588.0,295.5 587.5,296.0 587.0,296.5 586.5,297.0 586.0,297.5 585.5,298.0 585.0,298.5 584.5,299.0 584.0,299.5 583.5,300.0 583.0,300.5 582.5,301.0 582.0,301.5 581.5,302.0 581.0,302.5 580.5,303.0 580.0,303.5 579.5,304.0 579.0,304.5 578.5,305.0 578.0,305.5 577.5,306.0 577.0,306.5 576.5,307.0 576.0,307.5 575.5,308.0 575.0,308.5 574.5,309.0 574.0,309.5 573.5,310.0 573.0,310.5 572.5,311.0 572.0,311.5 571.5,312.0 571.0,312.5 570.5,313.0 570.0,313.5 569.5,314.0 569.0,314.5 568.5,315.0 568.0,315.5 567.5,316.0 567.0,316.5 566.5,317.0 566.0,317.5 565.5,318.0 565.0,318.5 564.5,319.0 564.0,319.5 563.5,320.0 563.0,320.5 562.5,321.0 562.0,321.5 561.5,322.0 561.0,322.5 560.5,323.0 560.0,323.5 559.5,324.0 559.0,324.5 558.5,325.0 558.0,325.5 557.5,326.0 557.0,326.5 556.5,327.0 556.0,327.5 555.5,328.0 555.0,328.5 554.5,329.0 554.0,329.5 553.5,330.0 553.0,330.5 552.5,331.0 552.0,331.5 551.5,332.0 551.0,332.5 550.5,333.0 550.0,333.5 549.5,334.0 549.0,334.5 548.5,335.0 548.0,335.5 547.5,336.0 547.0,336.5 546.5,337.0 546.0,337.5 545.5,338.0 545.0,338.5 544.5,339.0 544.0,339.5 543.5,340.0 543.0,340.5 542.5,341.0 542.0,341.5 541.5,342.0 541.0,342.5 540.5,343.0 540.0,343.5 539.5,344.0 539.0,344.5 538.5,345.0 538.0,345.5 537.5,346.0 537.0,346.5 536.5,347.0 536.0,347.5 535.5,348.0 535.0,348.5 534.5,349.0 534.0,349.5 533.5,350.0 533.0,350.5 532.5,351.0 532.0,351.5 531.5,352.0 531.0,352.5 530.5,353.0 530.0,353.5 529.5,354.0 529.0,354.5 528.5,355.0 528.0,355.5 527.5,356.0 527.0,356.5 526.5,357.0 526.0,357.5 525.5,358.0 525.0,358.5 524.5,359.0 524.0,359.5 523.5,360.0 523.0,360.5 522.5,361.0 522.0,361.5 521.5,362.0 521.0,362.5 520.5,363.0 520.0,363.5 519.5,364.0 519.0,364.5 518.5,365.0 518.0,365.5 517.5,366.0 517.0,366.5 516.5,367.0 516.0,367.5 515.5,368.0 515.0,368.5 514.5,369.0 514.0,369.5 513.5,370.0 513.0,370.5 512.5,371.0 512.0,371.5 511.5,372.0 511.0,372.5 510.5,373.0 510.0,373.5 509.5,374.0 509.0,374.5 508.5,375.0 508.0,375.5 507.5,376.0 507.0,376.5 506.5,377.0 506.0,377.5 505.5,378.0 505.0,378.5 504.5,379.0 504.0,379.5 503.5,380.0 503.0,380.5 502.5,381.0 502.0,381.5 501.5,382.0 501.0,382.5 500.5,383.0 500.0,383.5 499.5,384.0 499.0,384.5 498.5,385.0 498.0,385.5 497.5,386.0 497.0,386.5 496.5,387.0 496.0,387.5 495.5,388.0 495.0,388.5 494.5,389.0 494.0,389.5 493.5,390.0 493.0,390.5 492.5,391.0 492.0,391.5 491.5,392.0 491.0,392.5 490.5,393.0 490.0,393.5 489.5,394.0 489.0,394.5 488.5,395.0 488.0,395.5 487.5,396.0 487.0,396.5 486.5,397.0 486.0,397.5 485.5,398.0 485.0,398.5 484.5,399.0 484.0,399.5 483.0,399.5 482.5,400.0 482.0,400.5 481.5,401.0 481.0,401.5 480.5,402.0 480.0,402.5 479.5,403.0 479.0,403.5 478.5,404.0 478.0,404.5 477.5,405.0 477.0,405.5 476.5,406.0 476.0,406.5 475.5,407.0 475.0,407.5 474.5,408.0 474.0,408.5 473.5,409.0 473.0,409.5 472.5,410.0 472.0,410.5" stroke="none" /><polygon fill="black" points="251.0,213.5 250.0,213.5 249.0,213.5 248.5,213.0 248.0,212.5 247.0,212.5 246.0,212.5 245.5,212.0 245.0,211.5 244.5,211.0 244.0,210.5 243.5,210.0 243.5,209.0 243.5,208.0 243.0,207.5 242.5,207.0 242.5,206.0 242.5,205.0 242.5,204.0 242.5,203.0 242.5,202.0 242.5,201.0 242.5,200.0 242.5,199.0 242.5,198.0 242.5,197.0 242.5,196.0 242.5,195.0 242.5,194.0 242.5,193.0 242.5,192.0 242.5,191.0 242.5,190.0 242.5,189.0 242.5,188.0 242.5,187.0 242.5,186.0 242.5,185.0 242.5,184.0 242.5,183.0 242.5,182.0 242.5,181.0 242.5,180.0 242.5,179.0 242.5,178.0 242.5,177.0 242.5,176.0 242.5,175.0 242.5,174.0 242.5,173.0 242.5,172.0 242.5,171.0 242.5,170.0 242.5,169.0 242.5,168.0 242.5,167.0 242.5,166.0 242.5,165.0 242.5,164.0 242.5,163.0 242.5,162.0 242.5,161.0 242.5,160.0 242.5,159.0 242.5,158.0 242.5,157.0 242.5,156.0 242.5,155.0 242.5,154.0 242.5,153.0 242.5,152.0 242.5,151.0 242.5,150.0 242.5,149.0 242.5,148.0 242.5,147.0 242.5,146.0 242.5,145.0 243.0,144.5 243.5,144.0 244.0,143.5 244.5,143.0 244.5,142.0 245.0,141.5 246.0,141.5 246.5,141.0 247.0,140.5 248.0,140.5 248.5,140.0 249.0,139.5 249.5,140.0 250.0,140.5 251.0,140.5 252.0,140.5 252.5,141.0 253.0,141.5 254.0,141.5 254.5,142.0 255.0,142.5 255.5,143.0 256.0,143.5 257.0,143.5 257.5,144.0 258.0,144.5 259.0,144.5 259.5,145.0 260.0,145.5 261.0,145.5 261.5,146.0 262.0,146.5 262.5,147.0 263.0,147.5 264.0,147.5 264.5,148.0 265.0,148.5 266.0,148.5 266.5,149.0 267.0,149.5 267.5,150.0 268.0,150.5 269.0,150.5 269.5,151.0 270.0,151.5 271.0,151.5 271.5,152.0 272.0,152.5 272.5,153.0 273.0,153.5 274.0,153.5 274.5,154.0 275.0,154.5 276.0,154.5 276.5,155.0 277.0,155.5 278.0,155.5 278.5,156.0 279.0,156.5 280.0,156.5 280.5,157.0 281.0,157.5 281.5,158.0 282.0,158.5 283.0,158.5 283.5,159.0 284.0,159.5 285.0,159.5 285.5,160.0 286.0,160.5 286.5,161.0 287.0,161.5 288.0,161.5 288.5,162.0 289.0,162.5 290.0,162.5 290.5,163.0 291.0,163.5 291.5,164.0 292.0,164.5 293.0,164.5 293.5,165.0 294.0,165.5 295.0,165.5 295.5,166.0 296.0,166.5 297.0,166.5 297.5,167.0 298.0,167.5 298.5,168.0 299.0,168.5 300.0,168.5 300.5,169.0 301.0,169.5 302.0,169.5 302.5,170.0 303.0,170.5 304.0,170.5 304.5,171.0 305.0,171.5 305.5,172.0 305.5,173.0 306.0,173.5 306.5,174.0 306.5,175.0 306.5,176.0 306.5,177.0 306.5,178.0 306.5,179.0 306.0,179.5 305.5,180.0 305.0,180.5 304.5,181.0 304.0,181.5 303.5,182.0 303.0,182.5 302.0,182.5 301.5,183.0 301.0,183.5 300.5,184.0 300.0,184.5 299.0,184.5 298.5,185.0 298.0,185.5 297.0,185.5 296.5,186.0 296.0,186.5 295.5,187.0 295.0,187.5 294.0,187.5 293.5,188.0 293.0,188.5 292.0,188.5 291.5,189.0 291.0,189.5 290.5,190.0 290.0,190.5 289.0,190.5 288.5,191.0 288.0,191.5 287.0,191.5 286.5,192.0 286.0,192.5 285.5,193.0 285.0,193.5 284.0,193.5 283.5,194.0 283.0,194.5 282.0,194.5 281.5,195.0 281.0,195.5 280.5,196.0 280.0,196.5 279.0,196.5 278.5,197.0 278.0,197.5 277.0,197.5 276.5,198.0 276.0,198.5 275.5,199.0 275.0,199.5 274.0,199.5 273.5,200.0 273.0,200.5 272.5,201.0 272.0,201.5 271.0,201.5 270.5,202.0 270.0,202.5 269.0,202.5 268.5,203.0 268.0,203.5 267.0,203.5 266.5,204.0 266.0,204.5 265.5,205.0 265.0,205.5 264.0,205.5 263.5,206.0 263.0,206.5 262.0,206.5 261.5,207.0 261.0,207.5 260.5,208.0 260.0,208.5 259.0,208.5 258.5,209.0 258.0,209.5 257.0,209.5 256.5,210.0 256.0,210.5 255.5,211.0 255.0,211.5 254.0,211.5 253.5,212.0 253.0,212.5 252.0,212.5 251.5,213.0 251.0,213.5" stroke="none" /></svg>